<svg xmlns="http://www.w3.org/2000/svg" viewBox="0 0 70 70" width="50" height="50" x="0px" y="0px" preserveAspectRatio="xMaxYMax">
 <g>
  <title>Layer 1</title>
  <ellipse ry="24" rx="24" id="svg_2" cy="33.5" cx="34.5" stroke-width="1.5" stroke="#000" fill="#fff"/>
  <path d="m28.91208,51.18l7.306,0l0,-17.68217l4.87392,0l0.64567,-6.09266l-5.51959,0l0.00759,-3.05067c0,-1.58817 0.15166,-2.44075 2.431,-2.44075l3.04633,0l0,-6.09375l-4.875,0c-5.85542,0 -7.91592,2.95642 -7.91592,7.92675l0,3.65842l-3.64975,0l0,6.09375l3.64975,0l0,17.68108zm4.58792,14.82c-17.94867,0 -32.5,-14.55133 -32.5,-32.5c0,-17.94975 14.55134,-32.5 32.5,-32.5s32.5,14.55025 32.5,32.5c0,17.94867 -14.55133,32.5 -32.5,32.5z" fill="#3A589B" clip-rule="evenodd" fill-rule="evenodd" id="svg_1" stroke="null"/>
 </g>
</svg>