<svg xmlns="http://www.w3.org/2000/svg" viewBox="0 0 70 70" width="50" height="50" x="0px" y="0px" preserveAspectRatio="xMaxYMax">
 <style type="text/css">.st0{fill:none;}
	.st1{fill:#D6492F;}
	.st2{fill:#FFFFFF;}</style>

 <g>
  <title>Layer 1</title>
  <path d="m63.5,21.1l0,0c0.5,1.2 0.9,2.3 1.2,3.6c-0.3,-1.3 -0.7,-2.5 -1.2,-3.6l0,0l0,0l0,0zm1.3,3.5c0.8,2.8 1.2,5.8 1.2,8.9c0,17.9 -14.6,32.5 -32.5,32.5s-32.5,-14.6 -32.5,-32.5c0,-17.9 14.6,-32.5 32.5,-32.5c13.5,0 25.2,8.3 30,20.1l0,0" class="st1" id="svg_1"/>
 </g>
 <g>
  <title>Layer 2</title>
  <path id="svg_2" d="m21.9,57.4c-4.9,-0.4 -12.5,-2.5 -11,-9.1c1.5,-6.3 8.9,-7 14.2,-7.6c-1.3,-1.9 -2,-3.4 -1.1,-5.7c-3.7,0.3 -7.4,-0.6 -9.4,-4c-1.8,-2.9 -1.4,-6.4 0.3,-9.2c1.9,-3 5.2,-4.4 8.6,-4.9c4.6,-0.6 9.4,-0.2 14,-0.2c-0.8,0.6 -2.2,1.5 -3.2,1.8c-1.1,0.3 -2.4,0.1 -3.5,0.1c3.3,2.9 5.2,7.5 2.6,11.5c-1.2,1.9 -3.8,2.9 -4.6,4.9c-1,2.4 2,3.9 3.5,5.1c1.8,1.6 3.6,3.3 4,5.8c0.4,2.2 -0.4,4.7 -1.7,6.5c-2.9,3.8 -8.2,5 -12.7,5c-0.6,-0.1 0.2,0 0,0zm3,-2.3c2.3,-0.1 4.6,-0.3 6.3,-2c1.4,-1.3 1.9,-3.2 1.5,-5.1c-0.5,-2 -2.2,-3.2 -3.8,-4.3c-0.7,-0.6 -1.5,-1.3 -2.4,-1.5c-1.1,-0.2 -2.6,0.1 -3.7,0.2c-3.6,0.5 -7.9,2.5 -7.3,6.9c0.7,4.5 5.6,5.8 9.4,5.8c0.5,0 -1.9,0 0,0zm-6.8,-30.9c0.5,3.4 1.4,7.8 5.1,9.2c1.6,0.6 3.5,0.2 4.8,-0.8c1.5,-1.1 1.9,-2.9 1.8,-4.7c-0.1,-3.3 -1.6,-7.6 -4.8,-9c-1.5,-0.7 -3.3,-0.5 -4.7,0.5c-1.7,1.1 -1.9,2.8 -2.2,4.8c0.1,0.8 0.1,-0.7 0,0z" class="st2"/>
  <path id="svg_3" d="m50.8,13.7c0,0.1 0,0.2 0,0.4c0,3.1 0,6.1 0,9.2c0,0.1 0,0.2 0,0.4c3.4,0 6.8,0 10.1,0c0,1.1 0,2.1 0,3.2c-3.4,0 -6.7,0 -10.1,0c0,3.4 0,6.7 0,10.1c-1.1,0 -2.1,0 -3.2,0c0,-3.4 0,-6.7 0,-10.1c-3.4,0 -6.8,0 -10.2,0c0,-1.1 0,-2.1 0,-3.2c3.4,0 6.8,0 10.2,0c0,-0.2 0,-0.3 0,-0.4c0,-3.1 0,-6.1 0,-9.2c0,-0.1 0,-0.3 0,-0.4c1.1,0 2.1,0 3.2,0z" class="st2"/>
 </g>
 <g>
  <title>background</title>
 </g>
 <g>
  <title>background</title>
  <rect fill="none" id="canvas_background" height="72" width="72" y="-1" x="-1"/>
 </g>
</svg>