<svg xmlns="http://www.w3.org/2000/svg" viewBox="0 0 70 70" width="50" height="50" x="0px" y="0px" preserveAspectRatio="xMaxYMax">

 <g>
  <title>background</title>
  <rect fill="none" id="canvas_background" height="72" width="72" y="-1" x="-1"/>
 </g>
 <g>
  <title>Layer 1</title>
  <ellipse ry="25" rx="25" id="svg_2" cy="33.5" cx="33.5" fill-opacity="null" stroke-opacity="null" stroke-width="null" stroke="null" fill="#ffffff"/>
  <path d="m51.740084,48.815084l0,-12.687999c0,-6.797916 -3.629166,-9.96125 -8.467333,-9.96125c-3.904333,0 -5.653916,2.14825 -6.628916,3.655166l0,-3.135167l-7.355833,0c0.0975,2.07675 0,22.129249 0,22.129249l7.355833,0l0,-12.358666c0,-0.65975 0.047667,-1.320583 0.242667,-1.792917c0.530833,-1.321667 1.740917,-2.689917 3.772166,-2.689917c2.662833,0 3.726666,2.029083 3.726666,5.002833l0,11.839749l7.35475,0l0,-0.001083l0,0.000002zm-30.201165,-25.149582c2.56425,0 4.162166,-1.700833 4.162166,-3.82525c-0.047667,-2.169917 -1.597917,-3.822 -4.113416,-3.822s-4.161083,1.651 -4.161083,3.822c0,2.124417 1.596833,3.82525 4.06575,3.82525l0.046583,0zm11.961083,42.334498c-17.948666,0 -32.499998,-14.551333 -32.499998,-32.499998c0,-17.949749 14.551333,-32.499998 32.499998,-32.499998s32.499998,14.550249 32.499998,32.499998c0,17.948666 -14.551333,32.499998 -32.499998,32.499998zm-8.283166,-17.184916l0,-22.129249l-7.35475,0l0,22.129249l7.35475,0z" fill="#007AB9" clip-rule="evenodd" fill-rule="evenodd" id="svg_1" stroke="null"/>
 </g>
</svg>