<?xml version="1.0" encoding="utf-8"?>
<!-- Generator: Adobe Illustrator 19.2.0, SVG Export Plug-In . SVG Version: 6.00 Build 0)  -->
<svg version="1.1" id="Layer_1" xmlns="http://www.w3.org/2000/svg" xmlns:xlink="http://www.w3.org/1999/xlink" xml:space="preserve" viewBox="0 0 70 70" width="50" height="50" x="0px" y="0px" preserveAspectRatio="xMaxYMax">
<style type="text/css">
	.st0{fill:#FFE591;}
	.st1{fill:#FFFFFF;}
	.st2{fill:#CD201F;}
	.st3{fill:#232323;}
	.st4{fill:#DD880C;}
</style>
<g>
	<title>Layer 1</title>
	<path id="svg_1" class="st0" d="M34,65.5C16.1,65.5,1.5,50.9,1.5,33S16.1,0.5,34,0.5S66.5,15.1,66.5,33S51.9,65.5,34,65.5z"/>
</g>
<g>
	<title>Layer 1</title>
	<g id="svg_11">
		<g id="Shape_4_1_">
			<g id="Shape_4">
				<g id="svg_3">
					<path id="svg_4" class="st1" d="M45.6,39.7c-0.6-6-8.6-10.2-17.9-9.3C18.4,31.3,11.4,36.9,12,43c0.6,6,8.6,10.2,17.9,9.3
						C39.2,51.3,46.2,45.7,45.6,39.7z"/>
				</g>
			</g>
		</g>
		<g id="Shape_3_1_">
			<g id="Shape_3">
				<g id="svg_5">
					<path id="svg_6" class="st2" d="M48.4,32.2c-0.8-0.2-1.3-0.4-0.9-1.4c0.9-2.2,1-4.2,0-5.5c-1.8-2.6-6.8-2.4-12.5-0.1
						c0,0-1.8,0.8-1.3-0.6c0.9-2.8,0.7-5.1-0.6-6.5C30,15,21.7,18.2,14.6,25.2C9.3,30.4,6.3,36,6.3,40.8c0,9.2,11.9,14.8,23.6,14.8
						c15.3,0,25.4-8.8,25.4-15.7C55.3,35.6,51.7,33.2,48.4,32.2L48.4,32.2z M29.9,52.2c-9.3,0.9-17.4-3.2-18-9.2s6.4-11.7,15.7-12.6
						s17.3,3.2,17.9,9.3C46.2,45.7,39.2,51.3,29.9,52.2z"/>
				</g>
			</g>
		</g>
		<g id="Shape_2_1_">
			<g id="Shape_2">
				<g id="svg_7">
					<path id="svg_8" class="st3" d="M30.7,34.9c-4.4-1.1-9.4,1-11.4,4.9s-0.1,8.2,4.4,9.6c4.6,1.5,10.1-0.8,12-5
						C37.6,40.3,35.3,36,30.7,34.9z M27.3,44.8c-0.9,1.4-2.8,2-4.3,1.4c-1.4-0.6-1.9-2.3-1-3.6c0.9-1.4,2.8-2,4.2-1.4
						C27.7,41.8,28.2,43.4,27.3,44.8z M30.3,41.1c-0.3,0.5-1,0.8-1.6,0.6s-0.7-0.8-0.4-1.4c0.3-0.5,1-0.8,1.6-0.6
						C30.4,39.9,30.6,40.5,30.3,41.1z"/>
				</g>
			</g>
		</g>
		<g id="Shape_1_1_">
			<g id="Shape_1">
				<g id="svg_9">
					<path id="svg_10" class="st4" d="M58,15.5c-3.6-4.2-8.9-5.7-13.8-4.7l0,0c-1.1,0.3-1.9,1.4-1.6,2.6c0.2,1.2,1.4,1.9,2.5,1.7
						c3.5-0.8,7.3,0.4,9.8,3.3c2.6,3,3.3,7,2.2,10.5l0,0c-0.4,1.2,0.2,2.4,1.4,2.8c1.1,0.4,2.3-0.3,2.6-1.4l0,0
						C62.6,25.3,61.6,19.6,58,15.5z M45.7,18.4c-1,0.2-1.6,1.2-1.4,2.2c0.2,1,1.2,1.7,2.1,1.4l0,0c1.2-0.3,2.4,0.1,3.3,1.1
						c0.9,1,1.1,2.3,0.7,3.5l0,0c-0.3,1,0.2,2.1,1.2,2.4s2-0.2,2.3-1.2c0.8-2.4,0.3-5.2-1.5-7.2C50.7,18.6,48.1,17.9,45.7,18.4z"/>
				</g>
			</g>
		</g>
	</g>
</g>
</svg>
