<svg xmlns="http://www.w3.org/2000/svg" viewBox="0 0 70 70" width="50" height="50" x="0px" y="0px" preserveAspectRatio="xMaxYMax">
 <g>
  <title>Layer 1</title>
  <ellipse ry="25" rx="25" id="svg_2" cy="33.5" cx="34.5" fill-opacity="null" stroke-opacity="null" stroke-width="null" stroke="null" fill="#ffffff"/>
  <path d="m38.014252,20.806585c-2.83725,1.032417 -4.630167,3.69525 -4.4265,6.609417l0.06825,1.1245l-1.135333,-0.137583c-4.13075,-0.527583 -7.740417,-2.31725 -10.805167,-5.324583l-1.49825,-1.49175l-0.385667,1.10175c-0.816833,2.455917 -0.294667,5.049417 1.40725,6.793583c0.907833,0.964167 0.703083,1.10175 -0.862333,0.527583c-0.544917,-0.183083 -1.021583,-0.320667 -1.067083,-0.252417c-0.158167,0.161417 0.385667,2.249 0.816833,3.075583c0.590417,1.148333 1.792917,2.27175 3.11025,2.938l1.112583,0.527583l-1.31625,0.02275c-1.27075,0 -1.31625,0.02275 -1.17975,0.505917c0.453917,1.49175 2.246833,3.075583 4.2445,3.764583l1.40725,0.481l-1.22525,0.7345c-1.815667,1.057333 -3.949833,1.653167 -6.084,1.697583c-1.022667,0.02275 -1.86225,0.114833 -1.86225,0.184167c0,0.228583 2.770083,1.513417 4.381,2.019333c4.834917,1.49175 10.57875,0.84825 14.8915,-1.698667c3.06475,-1.8135 6.128417,-5.416667 7.5595,-8.906084c0.772417,-1.857917 1.54375,-5.25525 1.54375,-6.8835c0,-1.05625 0.06825,-1.193833 1.339,-2.455917c0.749667,-0.7345 1.45275,-1.53725 1.58925,-1.766917c0.2275,-0.436583 0.203667,-0.436583 -0.953333,-0.046583c-1.929417,0.689 -2.202417,0.596917 -1.248,-0.4355c0.703083,-0.7345 1.54375,-2.065917 1.54375,-2.455917c0,-0.06825 -0.340167,0.0455 -0.726917,0.252417c-0.408417,0.229667 -1.31625,0.574167 -1.997667,0.78l-1.22525,0.391083l-1.112583,-0.758333c-0.613167,-0.41275 -1.474417,-0.872083 -1.929417,-1.009667c-1.158083,-0.320667 -2.929333,-0.275167 -3.973667,0.092083l0.000001,0.000003zm-4.51425,45.193418c-17.948667,0 -32.500001,-14.551334 -32.500001,-32.500001c0,-17.94975 14.551334,-32.500001 32.500001,-32.500001s32.500001,14.55025 32.500001,32.500001c0,17.948667 -14.551334,32.500001 -32.500001,32.500001z" fill="#598DCA" clip-rule="evenodd" fill-rule="evenodd" id="svg_1" stroke="null"/>
 </g>
</svg>