<svg xmlns="http://www.w3.org/2000/svg" width="30" height="30" viewBox="0 0 30 30">
    <g fill="none" fill-rule="evenodd">
        <path fill="#FCD450" stroke="#000" d="M26.31 21.965c.742 1.285-.188 2.892-1.67 2.892H5.36c-1.485 0-2.411-1.61-1.671-2.892l9.64-16.716c.742-1.286 2.6-1.283 3.341 0l9.64 16.716z"/>
        <path fill="#000" d="M15 18.509a1.848 1.848 0 1 0 0 3.696 1.848 1.848 0 0 0 0-3.696zM13.245 11.866l.298 5.464a.482.482 0 0 0 .482.456h1.95c.256 0 .468-.2.482-.456l.298-5.464a.482.482 0 0 0-.482-.509h-2.546a.482.482 0 0 0-.482.509z"/>
    </g>
</svg>
