<svg xmlns="http://www.w3.org/2000/svg" viewBox="0 0 70 70" width="50" height="50" x="0px" y="0px" preserveAspectRatio="xMaxYMax">
 <defs>
  <style>.cls-1 {
        fill: #fff;
      }

      .cls-2 {
        fill: #00bb0c;
      }

      .cls-2, .cls-3 {
        fill-rule: evenodd;
      }

      .cls-3 {
        fill: #000;
        opacity: 0.1;
      }</style>
 </defs>
 <g>
  <title>Layer 1</title>
  <ellipse ry="27" rx="27" id="svg_1" cy="33.5" cx="33.5" fill-opacity="null" stroke-opacity="null" stroke-width="null" stroke="null" fill="#ffffff"/>
  <path class="cls-2" d="m33,65.000001c-17.396983,0 -31.500001,-14.103018 -31.500001,-31.500001c0,-17.396983 14.103018,-31.500001 31.500001,-31.500001c17.396983,0 31.500001,14.103018 31.500001,31.500001c0,17.396983 -14.103018,31.500001 -31.500001,31.500001zm4.740135,-36.916525c-1.218902,-6.072979 -7.581041,-10.702618 -15.246247,-10.702618c-8.5365,0 -15.45678,5.741983 -15.45678,12.82493c0,3.987334 2.193065,7.549664 5.632963,9.901952c0.935895,0.639967 -0.197982,2.833893 -0.937863,4.261975c-0.440139,0.849393 0.779625,0.630615 0.779625,0.630615c0,0 4.203035,-2.863178 4.864658,-2.68919c1.613268,0.424389 3.323865,0.719578 5.117397,0.719578c0.230713,0 0.460318,-0.004184 0.68857,-0.012428l0.03999,-0.010459c-0.33801,-0.996434 -0.518766,-2.046393 -0.518766,-3.130682c0,-6.463776 6.419233,-11.703727 14.337792,-11.703727c0.23748,0 0.473607,0.004676 0.708258,0.014027l-0.009598,-0.103975l0.000001,0.000002zm-0.908455,1.071123c-7.261858,0 -13.14879,4.863428 -13.14879,10.862702c0,5.999274 5.886932,10.862579 13.14879,10.862579c1.792178,0 3.500561,-0.296174 5.05735,-0.832535c0.350684,-0.120832 3.258527,1.742467 3.258527,1.742467c0,0 1.252863,0.939463 0.748002,-0.555926c-0.403471,-1.195031 -0.916699,-2.682422 -0.585703,-2.913258c2.85641,-1.992621 4.670613,-4.97294 4.670613,-8.303327c0,-5.999274 -5.886932,-10.862702 -13.14879,-10.862702l0.000001,0zm4.616104,9.110637c-0.927035,0 -1.678606,-0.753047 -1.678606,-1.681928c0,-0.929004 0.75157,-1.682051 1.678606,-1.682051c0.927035,0 1.678482,0.753047 1.678482,1.682051c0,0.928881 -0.751447,1.681928 -1.678482,1.681928zm-8.67259,0c-0.927035,0 -1.678606,-0.753047 -1.678606,-1.681928c0,-0.929004 0.75157,-1.682051 1.678606,-1.682051c0.927035,0 1.678482,0.753047 1.678482,1.682051c0,0.928881 -0.751447,1.681928 -1.678482,1.681928zm-5.035694,-10.091813c-1.158856,0 -2.098318,-0.941309 -2.098318,-2.102379c0,-1.161193 0.939463,-2.102502 2.098318,-2.102502c1.158732,0 2.098195,0.941309 2.098195,2.102502c0,1.16107 -0.939463,2.102379 -2.098195,2.102379zm-10.351196,0c-1.158856,0 -2.098195,-0.941309 -2.098195,-2.102379c0,-1.161193 0.93934,-2.102502 2.098195,-2.102502c1.158732,0 2.098195,0.941309 2.098195,2.102502c0,1.16107 -0.939463,2.102379 -2.098195,2.102379z" id="svg_2" stroke="null"/>
  <path class="cls-3" d="m75.012,436.999" id="svg_3"/>
 </g>
</svg>