<?xml version="1.0" encoding="utf-8"?>
<!-- Generator: Adobe Illustrator 16.0.0, SVG Export Plug-In . SVG Version: 6.00 Build 0)  -->
<!DOCTYPE svg PUBLIC "-//W3C//DTD SVG 1.1//EN" "http://www.w3.org/Graphics/SVG/1.1/DTD/svg11.dtd">
<svg version="1.1" id="Layer_1" xmlns="http://www.w3.org/2000/svg" xmlns:xlink="http://www.w3.org/1999/xlink" x="0px" y="0px"
	 width="15.13px" height="15.13px" viewBox="-2.028 -3.274 15.13 15.13" enable-background="new -2.028 -3.274 15.13 15.13"
	 xml:space="preserve">
<g>
	<path d="M0,4.526c0.358-0.418,0.714-0.831,1.072-1.249c1.05,0.744,2.056,1.536,3.028,2.38c0.088-0.104,0.171-0.203,0.257-0.303
		C5.44,4.083,6.582,2.868,7.836,1.761c0.709-0.628,1.45-1.212,2.257-1.713c0.024-0.015,0.05-0.029,0.082-0.048
		c0.302,0.453,0.601,0.9,0.899,1.351c-0.01,0.01-0.016,0.018-0.022,0.024c-0.798,0.653-1.499,1.402-2.155,2.194
		C7.672,5.04,6.6,6.616,5.622,8.256C5.567,8.347,5.511,8.436,5.46,8.525C5.435,8.571,5.402,8.583,5.354,8.583
		c-0.719,0-1.436-0.002-2.154,0c-0.051,0-0.08-0.018-0.106-0.059c-0.52-0.773-1.06-1.531-1.643-2.256
		C0.992,5.7,0.517,5.145,0.049,4.584C0.034,4.567,0.02,4.55,0,4.526z"/>
</g>
</svg>
