<?xml version="1.0" encoding="utf-8"?>
<!-- Generator: Adobe Illustrator 16.0.4, SVG Export Plug-In . SVG Version: 6.00 Build 0)  -->
<!DOCTYPE svg PUBLIC "-//W3C//DTD SVG 1.1//EN" "http://www.w3.org/Graphics/SVG/1.1/DTD/svg11.dtd">
<svg version="1.1" id="Layer_1" xmlns="http://www.w3.org/2000/svg" xmlns:xlink="http://www.w3.org/1999/xlink" x="0px" y="0px"
	 width="50px" height="50px" viewBox="0 0 50 50" enable-background="new 0 0 50 50" xml:space="preserve">
<path fill-rule="evenodd" clip-rule="evenodd" d="M25,0C11.193,0,0,11.193,0,24.998C0,38.807,11.193,50,25,50s25-11.193,25-25.002
	C50,11.193,38.807,0,25,0z M22.375,12.5h5.251v16.598h-5.251V12.5z M27.978,35.539c-0.164,0.396-0.392,0.74-0.684,1.033
	c-0.293,0.291-0.637,0.52-1.033,0.682C25.863,37.416,25.443,37.5,25,37.5s-0.863-0.084-1.261-0.246
	c-0.396-0.162-0.74-0.391-1.032-0.682c-0.293-0.293-0.52-0.637-0.684-1.033c-0.163-0.396-0.244-0.816-0.244-1.262
	c0-0.441,0.081-0.861,0.244-1.26c0.164-0.396,0.391-0.74,0.684-1.033c0.292-0.291,0.636-0.52,1.032-0.684
	c0.397-0.162,0.817-0.244,1.261-0.244s0.863,0.082,1.261,0.244c0.396,0.164,0.74,0.393,1.033,0.684
	c0.292,0.293,0.52,0.637,0.684,1.033c0.162,0.398,0.244,0.818,0.244,1.26C28.222,34.723,28.14,35.143,27.978,35.539z"/>
</svg>
