<?xml version="1.0" encoding="utf-8"?>
<!-- Generator: Adobe Illustrator 16.0.4, SVG Export Plug-In . SVG Version: 6.00 Build 0)  -->
<!DOCTYPE svg PUBLIC "-//W3C//DTD SVG 1.1//EN" "http://www.w3.org/Graphics/SVG/1.1/DTD/svg11.dtd">
<svg version="1.1" id="Layer_1" xmlns="http://www.w3.org/2000/svg" xmlns:xlink="http://www.w3.org/1999/xlink" x="0px" y="0px"
	 width="27.28px" height="26.251px" viewBox="16.001 15.849 27.28 26.251" enable-background="new 16.001 15.849 27.28 26.251"
	 xml:space="preserve">
<path d="M27.522,39.699c0-1.325-1.075-2.401-2.401-2.401c-1.328,0-2.403,1.076-2.403,2.401c0,1.325,1.075,2.401,2.403,2.401
	C26.447,42.1,27.522,41.024,27.522,39.699 M42.342,39.699c0-1.325-1.074-2.401-2.402-2.401s-2.403,1.076-2.403,2.401
	c0,1.325,1.075,2.401,2.403,2.401S42.342,41.024,42.342,39.699 M42.112,19.461H21.449l-0.378-2.01
	c-0.062-0.332-0.311-0.599-0.636-0.686l-3.331-0.887c-0.467-0.122-0.948,0.153-1.073,0.621c-0.125,0.469,0.154,0.949,0.622,1.075
	l2.795,0.745L22.54,34.73c0.08,0.415,0.441,0.715,0.863,0.715h18.709c0.484,0,0.877-0.393,0.877-0.877s-0.393-0.877-0.877-0.877
	H24.131l-0.352-1.867l18.566-3.766c0.546-0.111,0.936-0.59,0.936-1.147v-6.28C43.281,19.985,42.759,19.461,42.112,19.461"/>
</svg>
