<svg xmlns="http://www.w3.org/2000/svg" xmlns:xlink="http://www.w3.org/1999/xlink" version="1.1" id="Layer_1" x="0px" y="0px" width="37px" height="35px" viewBox="10.9462 11.8738 27.9221 26.2523" enable-background="new 0 0 50 50" xml:space="preserve"  preserveAspectRatio="xMidYMid meet"><rect id="svgEditorBackground" x="0" y="0" width="50" height="50" style="fill: none; stroke: none;"/>
<g>
	<path d="M37.263,37.871c0.004-4.028,0.008-8.042,0.011-12.055c-1.308-0.001-2.604-0.002-3.916-0.003   c-0.002,2.717-0.005,5.423-0.007,8.129c-6.111-0.006-12.206-0.012-18.304-0.017c0.005-5.432,0.01-10.853,0.014-16.294   c3.052,0.003,6.097,0.005,9.14,0.008c0.001-1.316,0.002-2.612,0.003-3.905c-4.359-0.004-8.709-0.008-13.057-0.012   c-0.008,8.049-0.016,16.084-0.022,24.126C19.841,37.856,28.548,37.864,37.263,37.871z"/>
	<path d="M31.762,16.109c-3.577,3.571-7.146,7.135-10.7,10.682c0.93,0.931,1.849,1.853,2.788,2.794   c3.591-3.584,7.19-7.179,10.798-10.778c1.399,1.31,2.802,2.619,4.219,3.943c0.003-3.559,0.007-7.084,0.01-10.61   c-3.787-0.004-7.563-0.007-11.369-0.011C28.938,13.468,30.347,14.785,31.762,16.109z"/>
</g>
</svg>