<?xml version="1.0" encoding="utf-8"?>
<!-- Generator: Adobe Illustrator 17.0.0, SVG Export Plug-In . SVG Version: 6.00 Build 0)  -->
<!DOCTYPE svg PUBLIC "-//W3C//DTD SVG 1.1//EN" "http://www.w3.org/Graphics/SVG/1.1/DTD/svg11.dtd">
<svg version="1.1" id="Layer_1" xmlns="http://www.w3.org/2000/svg" xmlns:xlink="http://www.w3.org/1999/xlink" x="0px" y="0px"
	 width="43.868px" height="33.989px" viewBox="0 0 43.868 33.989" enable-background="new 0 0 43.868 33.989" xml:space="preserve">
<circle fill="#4B4A4B" cx="2.578" cy="25.545" r="1.002"/>
<circle fill="#4B4A4B" cx="2.578" cy="31.437" r="1.002"/>
<circle fill="#4B4A4B" cx="2.578" cy="19.655" r="1.002"/>
<circle fill="#4B4A4B" cx="2.578" cy="13.764" r="1.002"/>
<circle fill="#4B4A4B" cx="2.578" cy="7.873" r="1.002"/>
<circle fill="#4B4A4B" cx="2.578" cy="1.982" r="1.002"/>
<rect x="5.092" y="1.467" fill="#4B4A4B" width="13.653" height="0.797"/>
<rect x="5.092" y="25.204" fill="#4B4A4B" width="13.653" height="0.797"/>
<rect x="5.092" y="19.369" fill="#4B4A4B" width="13.653" height="0.797"/>
<rect x="5.092" y="13.535" fill="#4B4A4B" width="13.653" height="0.797"/>
<rect x="5.092" y="7.7" fill="#4B4A4B" width="13.653" height="0.797"/>
<rect x="5.092" y="31.038" fill="#4B4A4B" width="13.653" height="0.797"/>
<rect x="27.779" y="1.467" fill="#4B4A4B" width="13.653" height="0.797"/>
<rect x="27.779" y="25.204" fill="#4B4A4B" width="13.653" height="0.797"/>
<rect x="27.779" y="19.369" fill="#4B4A4B" width="13.653" height="0.797"/>
<rect x="27.779" y="13.535" fill="#4B4A4B" width="13.653" height="0.797"/>
<rect x="27.779" y="7.7" fill="#4B4A4B" width="13.653" height="0.797"/>
<rect x="27.779" y="31.038" fill="#4B4A4B" width="13.653" height="0.797"/>
<circle fill="#4B4A4B" cx="25.085" cy="25.545" r="1.002"/>
<circle fill="#4B4A4B" cx="25.085" cy="31.437" r="1.002"/>
<circle fill="#4B4A4B" cx="25.085" cy="19.655" r="1.002"/>
<circle fill="#4B4A4B" cx="25.085" cy="13.764" r="1.002"/>
<circle fill="#4B4A4B" cx="25.085" cy="7.873" r="1.002"/>
<circle fill="#4B4A4B" cx="25.085" cy="1.982" r="1.002"/>
</svg>
