<?xml version="1.0" encoding="utf-8"?>
<!-- Generated by IcoMoon.io -->
<!DOCTYPE svg PUBLIC "-//W3C//DTD SVG 1.1//EN" "http://www.w3.org/Graphics/SVG/1.1/DTD/svg11.dtd">
<svg version="1.1" xmlns="http://www.w3.org/2000/svg" xmlns:xlink="http://www.w3.org/1999/xlink" width="55" height="48" viewBox="0 0 55 48">
<path d="M0.499 5.965v36.070h52.903v-36.070h-52.903zM29.771 34.341c-0.158 0.378-0.375 0.705-0.65 0.982-0.281 0.278-0.607 0.495-0.985 0.65-0.379 0.156-0.779 0.234-1.201 0.234-0.423 0-0.822-0.078-1.202-0.234-0.375-0.155-0.707-0.373-0.982-0.65-0.278-0.278-0.495-0.605-0.65-0.982-0.156-0.379-0.233-0.778-0.233-1.201s0.077-0.822 0.233-1.201c0.155-0.378 0.373-0.705 0.65-0.985 0.275-0.275 0.607-0.493 0.982-0.649 0.38-0.156 0.779-0.233 1.202-0.233 0.422 0 0.822 0.077 1.201 0.233 0.378 0.156 0.703 0.374 0.985 0.649 0.275 0.28 0.493 0.607 0.65 0.985 0.155 0.379 0.231 0.778 0.231 1.201s-0.076 0.821-0.231 1.201zM34.673 20.114c-0.133 0.522-0.362 1.040-0.682 1.551-0.326 0.511-0.747 1.028-1.269 1.551-0.523 0.523-1.184 1.095-1.985 1.718-0.512 0.399-0.856 0.789-1.036 1.166-0.175 0.379-0.266 0.757-0.266 1.135v0.968h-5.002v-1.469c0-0.667 0.088-1.234 0.267-1.7 0.177-0.468 0.476-0.902 0.901-1.302 0.623-0.601 1.194-1.123 1.718-1.568s0.973-0.862 1.35-1.25c0.378-0.391 0.672-0.758 0.885-1.103 0.209-0.345 0.316-0.705 0.316-1.083 0-0.735-0.228-1.307-0.685-1.717-0.456-0.412-1.027-0.618-1.716-0.618-1.045 0-1.842 0.29-2.385 0.867-0.543 0.578-0.85 1.279-0.917 2.103l-5.136-0.334c0.243-2.357 1.11-4.152 2.601-5.385s3.403-1.853 5.738-1.853c1.023 0 1.985 0.139 2.884 0.417 0.903 0.278 1.697 0.696 2.385 1.25 0.689 0.556 1.232 1.246 1.633 2.068 0.402 0.824 0.601 1.767 0.601 2.835 0 0.647-0.066 1.23-0.2 1.753z" fill="rgb(68, 68, 68)"></path>
</svg>
