<!-- Generated by IcoMoon.io -->
<svg version="1.1" xmlns="http://www.w3.org/2000/svg" width="1325" height="1024" viewBox="0 0 1325 1024">
<title></title>
<g id="icomoon-ignore">
</g>
<path fill="#000" d="M1092.085 147.153c-5.325-10.649-10.649-21.298-17.745-30.165 19.527-44.368 30.165-70.99 30.165-79.858l-1.771-3.553c-46.139-26.623-70.99-40.814-72.762-40.814l-3.553 1.771c-15.974 15.974-33.719 37.272-53.245 65.666l-17.745-1.771-17.745 1.771c-5.325-8.878-15.974-21.298-30.165-39.043s-23.070-26.623-26.623-26.623c0 0-7.096 3.553-17.745 8.878-10.649 7.096-23.070 12.42-33.719 19.527s-19.527 10.649-19.527 12.42l-1.771 3.553c0 8.878 10.649 37.272 30.165 79.858-7.096 8.878-12.42 19.527-17.745 30.165-58.57 5.325-86.964 12.42-86.964 17.745v81.64c0 7.096 28.394 12.42 86.964 17.745 5.325 10.649 10.649 21.298 17.745 30.165-19.527 44.368-30.165 70.99-30.165 79.858l1.771 3.553c47.921 28.394 70.99 40.814 72.762 40.814 3.553 0 12.42-8.878 26.623-26.623s24.841-31.947 30.165-39.043l17.745 1.771 17.745-1.771c5.325 8.878 15.974 21.298 30.165 39.043s23.070 26.623 26.623 26.623c0 0 24.841-14.202 72.762-40.814l1.771-3.553c0-10.649-10.649-37.272-30.165-79.858 7.096-8.878 12.42-19.527 17.745-30.165 58.57-5.325 86.964-12.42 86.964-17.745v-81.64c-1.771-7.096-30.165-14.202-88.735-19.527zM1092.085 743.46c-5.325-10.649-10.649-21.298-17.745-30.165 19.527-44.368 30.165-70.99 30.165-79.858l-1.771-3.553c-46.139-26.623-70.99-40.814-72.762-40.814l-3.553 1.771c-15.974 15.974-33.719 37.272-53.245 65.666l-17.745-1.771-17.745 1.771c-5.325-8.878-15.974-21.298-30.165-39.043s-23.070-26.623-26.623-26.623c0 0-7.096 3.553-17.745 8.878s-23.070 12.42-33.719 19.527c-12.42 7.096-19.527 10.649-19.527 12.42l-1.771 3.553c0 8.878 10.649 37.272 30.165 79.858-7.096 8.878-12.42 19.527-17.745 30.165-58.57 5.325-86.964 12.42-86.964 17.745v81.64c0 7.096 28.394 12.42 86.964 17.745 5.325 10.649 10.649 21.298 17.745 30.165-19.527 44.368-30.165 70.99-30.165 79.858l1.771 3.553c47.921 28.394 70.99 40.814 72.762 40.814 3.553 0 12.42-8.878 26.623-26.623s24.841-31.947 30.165-39.043l17.745 1.771 17.745-1.771c5.325 8.878 15.974 21.298 30.165 39.043s23.070 26.623 26.623 26.623c0 0 24.841-14.202 72.762-40.814l1.771-3.553c0-8.878-10.649-37.272-30.165-79.858 7.096-8.878 12.42-19.527 17.745-30.165 58.57-5.325 86.964-12.42 86.964-17.745v-81.64c-1.771-8.878-30.165-14.202-88.735-19.527zM802.81 439.982l-10.649-5.325-88.735-14.202c-3.553-12.42-10.649-28.394-19.527-47.921 5.325-8.878 14.202-19.527 26.623-35.49 12.42-14.202 19.527-24.841 24.841-31.947l3.553-10.649c0-10.649-28.394-40.814-83.411-92.289l-12.42-5.325-12.42 3.553-69.209 51.464c-15.974-8.878-30.165-14.202-44.368-17.745l-14.202-88.735-5.325-10.649-12.42-3.553h-108.262c-8.878 0-14.202 5.325-17.745 14.202-5.325 17.745-8.878 47.921-14.202 88.735-15.974 5.325-31.947 12.42-44.368 17.745l-67.437-53.245-12.42-3.553c-7.096 0-23.070 10.649-46.139 33.719s-39.043 40.814-47.921 51.464l-3.553 12.42 3.553 12.42c21.298 26.623 39.043 47.921 51.464 67.437-8.878 15.974-14.202 30.165-17.745 44.368l-90.507 14.202-8.878 5.325-3.553 10.649v108.262l3.553 10.649 10.649 5.325 88.735 14.202c5.325 14.202 10.649 30.165 19.527 47.921-7.096 8.878-15.974 19.527-26.623 35.49-12.42 14.202-19.527 24.841-23.070 30.165v14.202c0 10.649 28.394 40.814 83.411 92.289l12.42 5.325 12.42-3.553 69.209-51.464c15.974 8.878 30.165 14.202 44.368 17.745l14.202 88.735 5.325 10.649 12.42 3.553h108.262c8.878 0 14.202-5.325 17.745-14.202 5.325-17.745 8.878-47.921 14.202-90.507 15.974-5.325 30.165-10.649 44.368-17.745l67.437 53.245 12.42 3.553c7.096 0 23.070-10.649 46.139-33.719s39.043-40.814 47.921-51.464l3.553-10.649-3.553-12.42c-21.298-26.623-39.043-47.921-51.464-67.437 8.878-15.974 14.202-30.165 17.745-44.368l90.507-14.202 8.878-5.325 3.553-10.649v-108.262l-8.878-12.42zM1008.675 258.958c-14.202 14.202-31.947 21.298-53.245 21.298s-37.272-7.096-53.245-21.298c-14.202-14.202-21.298-31.947-21.298-53.245 0-19.527 7.096-37.272 21.298-53.245 14.202-14.202 31.947-21.298 53.245-21.298s37.272 7.096 53.245 21.298c14.202 14.202 21.298 31.947 21.298 53.245s-7.096 39.043-21.298 53.245zM1008.675 853.493c-14.202 14.202-31.947 21.298-53.245 21.298s-37.272-7.096-53.245-21.298c-14.202-14.202-21.298-31.947-21.298-53.245 0-19.527 7.096-37.272 21.298-53.245 14.202-14.202 31.947-21.298 53.245-21.298s37.272 7.096 53.245 21.298c14.202 14.202 21.298 31.947 21.298 53.245s-7.096 39.043-21.298 53.245zM435.448 652.942c-40.814 0-76.315-14.202-104.709-44.368-28.394-28.394-44.368-63.895-44.368-104.709s14.202-76.315 44.368-104.709c28.394-28.394 63.895-44.368 104.709-44.368s76.315 14.202 104.709 44.368c28.394 28.394 44.368 63.895 44.368 104.709s-14.202 76.315-44.368 104.709c-28.394 30.165-63.895 44.368-104.709 44.368z"></path>
</svg>
