<?xml version="1.0" encoding="utf-8"?>
<!-- Generator: Adobe Illustrator 16.0.5, SVG Export Plug-In . SVG Version: 6.00 Build 0)  -->
<!DOCTYPE svg PUBLIC "-//W3C//DTD SVG 1.1//EN" "http://www.w3.org/Graphics/SVG/1.1/DTD/svg11.dtd">
<svg version="1.1" id="Layer_1" xmlns="http://www.w3.org/2000/svg" xmlns:xlink="http://www.w3.org/1999/xlink" x="0px" y="0px"
	 width="50px" height="43.465px" viewBox="0 0 50 43.465" enable-background="new 0 0 50 43.465" xml:space="preserve">
<g>
	<path d="M21.164,2.274c1.304,1.078,4.027,3.346,4.027,7.66c0,4.2-2.382,6.186-4.764,8.055c-0.739,0.738-1.59,1.533-1.59,2.781
		c0,1.25,0.851,1.93,1.475,2.439l2.042,1.59c2.498,2.097,4.767,4.029,4.767,7.943c0,5.334-5.164,10.723-14.923,10.723
		C3.971,43.465,0,39.551,0,35.35c0-2.041,1.021-4.934,4.37-6.922c3.516-2.154,8.284-2.437,10.836-2.609
		c-0.794-1.02-1.702-2.1-1.702-3.855c0-0.965,0.285-1.531,0.567-2.215c-0.625,0.057-1.248,0.115-1.817,0.115
		c-6.012,0-9.418-4.484-9.418-8.908c0-2.61,1.194-5.506,3.633-7.604c3.233-2.667,7.093-3.121,10.155-3.121h11.689L24.68,2.274
		H21.164z M17.136,27.465c-0.456-0.057-0.739-0.057-1.304-0.057c-0.513,0-3.578,0.113-5.959,0.906
		c-1.248,0.455-4.878,1.816-4.878,5.846s3.913,6.922,9.986,6.922c5.447,0,8.338-2.609,8.338-6.127
		C23.319,32.061,21.448,30.529,17.136,27.465 M18.781,16.686c1.308-1.307,1.418-3.123,1.418-4.144c0-4.084-2.44-10.439-7.149-10.439
		c-1.474,0-3.063,0.737-3.973,1.872C8.114,5.169,7.83,6.699,7.83,8.173c0,3.801,2.212,10.103,7.093,10.103
		C16.34,18.276,17.871,17.592,18.781,16.686"/>
	<polygon points="50,8.619 41.381,8.619 41.381,0 39.227,0 39.227,8.619 30.607,8.619 30.607,10.774 39.227,10.774 39.227,19.391 
		41.381,19.391 41.381,10.774 50,10.774 	"/>
</g>
</svg>
