<svg xmlns="http://www.w3.org/2000/svg" xmlns:xlink="http://www.w3.org/1999/xlink" version="1.1" id="Layer_1" x="0px" y="0px" width="142px" height="125px" viewBox="18.6515 22.1121 103.205 90.7706" enable-background="new 0 0 142 134" xml:space="preserve"  preserveAspectRatio="xMidYMid meet"><rect id="svgEditorBackground" x="0" y="0" width="142" height="134" style="fill: none; stroke: none;"/>
<g>
	<path d="M121.541,78.061l-19.247-41.273c-0.676-1.449-2.125-2.305-3.632-2.305c-0.562,0-1.135,0.12-1.676,0.372l-10.768,5.021   L68.096,24.669c-1.684-1.412-4.216-1.19-5.628,0.492L19.882,75.911c-1.41,1.683-1.19,4.215,0.493,5.627l34.886,29.271   c0.724,0.611,1.682,0.931,2.631,0.931c0.562,0,1.134-0.12,1.675-0.372l60.042-28C121.599,82.439,122.469,80.051,121.541,78.061z    M97.95,40.467l2.485,5.33L43.109,72.53l-2.486-5.331L97.95,40.467z M58.603,105.755L47.29,81.496l57.327-26.73l11.312,24.258   L58.603,105.755z"/>
	<rect x="60.113" y="74.921" transform="matrix(0.9063 -0.4226 0.4226 0.9063 -24.8283 40.9037)" width="39.435" height="3.046"/>
	<rect x="63.621" y="82.441" transform="matrix(0.9063 -0.4226 0.4226 0.9063 -27.6761 43.0849)" width="39.435" height="3.047"/>
</g>
</svg>