<?xml version="1.0" encoding="utf-8"?>
<!-- Generator: Adobe Illustrator 18.0.0, SVG Export Plug-In . SVG Version: 6.00 Build 0)  -->
<!DOCTYPE svg PUBLIC "-//W3C//DTD SVG 1.1//EN" "http://www.w3.org/Graphics/SVG/1.1/DTD/svg11.dtd">
<svg version="1.1" id="Layer_1" xmlns="http://www.w3.org/2000/svg" xmlns:xlink="http://www.w3.org/1999/xlink" x="0px" y="0px"
	 viewBox="0 0 1024 1024" enable-background="new 0 0 1024 1024" xml:space="preserve">
<g id="icomoon-ignore">
</g>
<path d="M512,0C229.2,0,0,229.2,0,512c0,282.8,229.2,512,512,512s512-229.2,512-512C1024,229.2,794.8,0,512,0L512,0z"/>
<g>
	<path fill-rule="evenodd" clip-rule="evenodd" fill="#FFFFFF" d="M299.3,521c13.8-16.1,27.4-31.9,41.2-48
		c40.3,28.6,79,59,116.3,91.4c3.4-4,6.6-7.8,9.9-11.6c41.6-48.8,85.5-95.6,133.6-138.1c27.3-24.1,55.7-46.6,86.7-65.8
		c1-0.6,1.9-1.2,3.1-1.9c11.6,17.4,23.1,34.6,34.6,51.9c-0.3,0.4-0.5,0.7-0.8,1c-30.7,25.1-57.6,53.9-82.9,84.3
		c-47,56.5-88.2,117.1-125.8,180.2c-2,3.4-4.2,6.8-6.2,10.3c-1,1.8-2.2,2.2-4.1,2.2c-27.6-0.1-55.2-0.1-82.7,0c-2,0-3.1-0.7-4.1-2.3
		c-19.9-29.7-40.7-58.8-63.1-86.7c-17.6-21.9-35.9-43.1-53.8-64.7C300.6,522.6,300,521.9,299.3,521z"/>
</g>
</svg>
