<?xml version="1.0" encoding="utf-8"?>
<!-- Generator: Adobe Illustrator 16.0.5, SVG Export Plug-In . SVG Version: 6.00 Build 0)  -->
<!DOCTYPE svg PUBLIC "-//W3C//DTD SVG 1.1//EN" "http://www.w3.org/Graphics/SVG/1.1/DTD/svg11.dtd">
<svg version="1.1" id="Layer_1" xmlns="http://www.w3.org/2000/svg" xmlns:xlink="http://www.w3.org/1999/xlink" x="0px" y="0px"
	 width="50px" height="50px" viewBox="0 0 50 50" enable-background="new 0 0 50 50" xml:space="preserve">
<path fill-rule="evenodd" clip-rule="evenodd" d="M6.418,0h37.164C47.112,0,50,2.888,50,6.417v37.165C50,47.112,47.112,50,43.582,50
	H6.418C2.888,50,0,47.112,0,43.582V6.417C0,2.888,2.888,0,6.418,0L6.418,0z M36.423,5.555c-1.238,0-2.251,1.013-2.251,2.251v5.388
	c0,1.238,1.013,2.251,2.251,2.251h5.651c1.238,0,2.251-1.013,2.251-2.251V7.806c0-1.238-1.013-2.251-2.251-2.251H36.423
	L36.423,5.555z M44.35,21.145h-4.402c0.417,1.36,0.643,2.799,0.643,4.29c0,8.317-6.959,15.058-15.542,15.058
	c-8.583,0-15.541-6.74-15.541-15.058c0-1.491,0.225-2.93,0.641-4.29H5.556v21.121c0,1.093,0.894,1.987,1.987,1.987h34.818
	c1.094,0,1.988-0.895,1.988-1.987V21.145L44.35,21.145z M25.047,15.162c-5.545,0-10.042,4.356-10.042,9.73
	c0,5.374,4.496,9.729,10.042,9.729c5.546,0,10.042-4.355,10.042-9.729C35.09,19.518,30.594,15.162,25.047,15.162z"/>
</svg>
