<?xml version="1.0" encoding="utf-8"?>
<!-- Generator: Adobe Illustrator 17.0.0, SVG Export Plug-In . SVG Version: 6.00 Build 0)  -->
<!DOCTYPE svg PUBLIC "-//W3C//DTD SVG 1.1//EN" "http://www.w3.org/Graphics/SVG/1.1/DTD/svg11.dtd">
<svg version="1.1" id="Layer_1" xmlns="http://www.w3.org/2000/svg" xmlns:xlink="http://www.w3.org/1999/xlink" x="0px" y="0px"
	 width="11.579px" height="16.866px" viewBox="0 0 11.579 16.866" enable-background="new 0 0 11.579 16.866" xml:space="preserve">
<path fill="#999999" d="M11.579,0c-0.016,0-0.029,0-0.043,0c-0.018,0.004-0.035,0.01-0.053,0.014
	c-0.214,0.041-0.43,0.078-0.642,0.12C9.634,0.382,8.461,0.73,7.316,1.179C5.909,1.731,4.571,2.412,3.331,3.282
	C2.598,3.798,1.915,4.374,1.329,5.059c-0.934,1.094-1.357,2.358-1.22,3.79c0.133,1.359,0.733,2.486,1.769,3.379
	c0.076,0.066,0.156,0.127,0.235,0.193c-0.012,0.025-0.023,0.048-0.037,0.069c-0.53,0.962-1.063,1.921-1.597,2.882
	c-0.139,0.249-0.278,0.498-0.415,0.749c-0.147,0.274-0.032,0.598,0.247,0.708c0.035,0.014,0.07,0.025,0.105,0.037
	c0.053,0,0.104,0,0.155,0c0.211-0.049,0.327-0.192,0.423-0.377c0.601-1.182,1.21-2.358,1.817-3.535
	c0.013-0.025,0.026-0.051,0.04-0.076c0.016,0.004,0.025,0.008,0.035,0.014c0.564,0.28,1.16,0.453,1.788,0.506
	c1.347,0.11,2.557-0.253,3.615-1.09C9.188,11.6,9.75,10.67,10.046,9.57c0.216-0.796,0.308-1.609,0.377-2.426
	c0.078-0.915,0.145-1.831,0.228-2.745c0.084-0.925,0.224-1.841,0.438-2.746C11.221,1.094,11.378,0.541,11.579,0z"/>
</svg>
