<?xml version="1.0" encoding="utf-8"?>
<!-- Generator: Adobe Illustrator 16.0.4, SVG Export Plug-In . SVG Version: 6.00 Build 0)  -->
<!DOCTYPE svg PUBLIC "-//W3C//DTD SVG 1.1//EN" "http://www.w3.org/Graphics/SVG/1.1/DTD/svg11.dtd">
<svg version="1.1" id="Layer_1" xmlns="http://www.w3.org/2000/svg" xmlns:xlink="http://www.w3.org/1999/xlink" x="0px" y="0px"
	 width="32px" height="32px" viewBox="595.962 381.465 32 32" enable-background="new 595.962 381.465 32 32" xml:space="preserve">
<path d="M622.962,381.465h-22c-2.762,0-5,2.24-5,5v22c0,2.762,2.238,5,5,5h22c2.761,0,5-2.238,5-5v-22
	C627.962,383.705,625.723,381.465,622.962,381.465z M607.595,405.111h-3.431v-10.316h3.431V405.111z M605.879,393.387h-0.021
	c-1.15,0-1.896-0.795-1.896-1.783c0-1.014,0.769-1.785,1.939-1.785c1.174,0,1.896,0.771,1.918,1.785
	C607.819,392.592,607.075,393.387,605.879,393.387z M619.962,405.111h-3.43v-5.521c0-1.387-0.496-2.334-1.738-2.334
	c-0.946,0-1.512,0.642-1.76,1.256c-0.091,0.222-0.113,0.527-0.113,0.836v5.763h-3.429c0,0,0.044-9.351,0-10.316h3.429v1.461
	c0.457-0.703,1.271-1.703,3.092-1.703c2.256,0,3.949,1.476,3.949,4.646V405.111z M612.898,396.289
	c0.008-0.01,0.017-0.021,0.021-0.033v0.033H612.898z"/>
</svg>
