<?xml version="1.0" encoding="utf-8"?>
<!-- Generator: Adobe Illustrator 16.0.4, SVG Export Plug-In . SVG Version: 6.00 Build 0)  -->
<!DOCTYPE svg PUBLIC "-//W3C//DTD SVG 1.1//EN" "http://www.w3.org/Graphics/SVG/1.1/DTD/svg11.dtd">
<svg version="1.1" id="Layer_1" xmlns="http://www.w3.org/2000/svg" xmlns:xlink="http://www.w3.org/1999/xlink" x="0px" y="0px"
	 width="23.002px" height="26.17px" viewBox="296.125 382.276 23.002 26.17" enable-background="new 296.125 382.276 23.002 26.17"
	 xml:space="preserve">
<path fill="#333333" d="M318.127,382.276H301.75h-4.625c-0.553,0-1,0.448-1,1v24.17c0,0.553,0.447,1,1,1h21.002c0.553,0,1-0.447,1-1
	v-24.17C319.127,382.724,318.68,382.276,318.127,382.276z M305.313,400.735l-2.54,2.855c-0.143,0.159-0.348,0.251-0.561,0.251
	c-0.021,0-0.043-0.001-0.064-0.003c-0.235-0.021-0.447-0.149-0.572-0.351l-0.93-1.496c-0.219-0.354-0.111-0.814,0.241-1.033
	c0.352-0.219,0.814-0.111,1.032,0.24l0.399,0.644l1.872-2.104c0.276-0.312,0.751-0.336,1.059-0.062
	C305.56,399.952,305.588,400.427,305.313,400.735z M305.313,394.423l-2.54,2.856c-0.143,0.158-0.348,0.251-0.561,0.251
	c-0.021,0-0.043-0.001-0.064-0.003c-0.235-0.021-0.447-0.15-0.572-0.352l-0.93-1.496c-0.219-0.353-0.111-0.814,0.241-1.033
	c0.352-0.219,0.814-0.111,1.032,0.24l0.399,0.644l1.872-2.104c0.276-0.311,0.751-0.336,1.059-0.062
	C305.56,393.64,305.588,394.114,305.313,394.423z M305.313,388.128l-2.54,2.856c-0.143,0.161-0.348,0.252-0.561,0.252
	c-0.021,0-0.043-0.001-0.063-0.003c-0.236-0.02-0.448-0.15-0.573-0.351l-0.93-1.496c-0.219-0.352-0.111-0.814,0.241-1.033
	c0.352-0.219,0.814-0.11,1.032,0.241l0.399,0.643l1.872-2.105c0.276-0.312,0.751-0.337,1.059-0.063
	C305.56,387.345,305.588,387.818,305.313,388.128z M313.713,402.516h-5.719c-0.414,0-0.75-0.336-0.75-0.75s0.336-0.75,0.75-0.75
	h5.719c0.414,0,0.75,0.336,0.75,0.75S314.127,402.516,313.713,402.516z M313.713,396.203h-5.719c-0.414,0-0.75-0.336-0.75-0.75
	s0.336-0.75,0.75-0.75h5.719c0.414,0,0.75,0.336,0.75,0.75S314.127,396.203,313.713,396.203z M313.713,389.529h-5.719
	c-0.414,0-0.75-0.336-0.75-0.75c0-0.414,0.336-0.75,0.75-0.75h5.719c0.414,0,0.75,0.336,0.75,0.75
	C314.463,389.193,314.127,389.529,313.713,389.529z"/>
</svg>
