<?xml version="1.0" encoding="utf-8"?>
<!-- Generator: Adobe Illustrator 16.0.0, SVG Export Plug-In . SVG Version: 6.00 Build 0)  -->
<!DOCTYPE svg PUBLIC "-//W3C//DTD SVG 1.1//EN" "http://www.w3.org/Graphics/SVG/1.1/DTD/svg11.dtd">
<svg version="1.1" id="Layer_1" xmlns="http://www.w3.org/2000/svg" xmlns:xlink="http://www.w3.org/1999/xlink" x="0px" y="0px"
	 width="15.125px" height="15.125px" viewBox="0 0 15.125 15.125" enable-background="new 0 0 15.125 15.125" xml:space="preserve">
<path d="M0,0v15.125h15.125V0H0z M14.125,13.418L9.528,8.821c0.447-0.623,0.9-1.244,1.393-1.835
	c0.657-0.792,1.358-1.541,2.156-2.194c0.007-0.006,0.012-0.014,0.022-0.024C12.8,4.317,12.501,3.87,12.2,3.417
	c-0.032,0.019-0.058,0.033-0.082,0.048C11.311,3.966,10.57,4.55,9.861,5.178C9.156,5.8,8.494,6.462,7.85,7.143L1.707,1h12.418
	V13.418z M1,1.707l6.18,6.18C6.915,8.183,6.64,8.469,6.382,8.771c-0.086,0.1-0.169,0.198-0.257,0.303
	C5.153,8.23,4.147,7.438,3.097,6.694C2.739,7.112,2.383,7.525,2.025,7.943c0.02,0.024,0.035,0.041,0.049,0.058
	c0.468,0.562,0.944,1.115,1.402,1.685c0.583,0.725,1.123,1.482,1.643,2.256C5.145,11.982,5.174,12,5.225,12
	c0.718-0.002,1.435-0.001,2.154,0c0.049,0,0.081-0.012,0.107-0.059c0.051-0.09,0.107-0.178,0.161-0.268
	c0.41-0.689,0.849-1.359,1.297-2.022l4.474,4.474H1V1.707z"/>
</svg>
