<?xml version="1.0" encoding="utf-8"?>
<!-- Generator: Adobe Illustrator 16.0.4, SVG Export Plug-In . SVG Version: 6.00 Build 0)  -->
<!DOCTYPE svg PUBLIC "-//W3C//DTD SVG 1.1//EN" "http://www.w3.org/Graphics/SVG/1.1/DTD/svg11.dtd">
<svg version="1.1" id="Layer_1" xmlns="http://www.w3.org/2000/svg" xmlns:xlink="http://www.w3.org/1999/xlink" x="0px" y="0px"
	 width="35.768px" height="40.354px" viewBox="0 0 35.768 40.354" enable-background="new 0 0 35.768 40.354" xml:space="preserve">
<path fill="#4A494A" d="M35.767,16.991c0-0.57-0.443-1.024-1.003-1.067v-4.44c0.56-0.043,1.003-0.498,1.003-1.067
	c0-0.599-0.484-1.083-1.083-1.083c-0.378,0-0.694,0.205-0.888,0.499l-3.685-2.047c0.024-0.089,0.056-0.177,0.056-0.274
	c0-0.598-0.485-1.083-1.083-1.083c-0.313,0-0.59,0.137-0.787,0.349L24.487,4.66c0.049-0.124,0.08-0.257,0.08-0.398
	c0-0.598-0.484-1.083-1.083-1.083c-0.356,0-0.657,0.184-0.854,0.45l-3.768-2.093c0.064-0.139,0.105-0.29,0.105-0.452
	C18.967,0.485,18.482,0,17.884,0c-0.599,0-1.083,0.484-1.083,1.083c0,0.163,0.042,0.313,0.106,0.452l-3.769,2.094
	c-0.197-0.266-0.499-0.45-0.855-0.45c-0.599,0-1.083,0.485-1.083,1.083c0,0.142,0.031,0.275,0.081,0.399L7.47,6.778
	C7.273,6.566,6.996,6.429,6.683,6.429C6.085,6.429,5.6,6.914,5.6,7.512c0,0.098,0.031,0.185,0.056,0.274L1.971,9.833
	C1.778,9.54,1.461,9.334,1.083,9.334C0.485,9.334,0,9.819,0,10.417c0,0.57,0.444,1.024,1.004,1.067v4.44
	C0.445,15.967,0,16.421,0,16.991c0,0.57,0.444,1.024,1.004,1.067v4.439C0.445,22.54,0,22.995,0,23.565
	c0,0.57,0.444,1.024,1.004,1.067v4.439C0.445,29.115,0,29.57,0,30.139c0,0.599,0.484,1.083,1.083,1.083
	c0.381,0,0.7-0.209,0.894-0.507l3.684,2.003C5.632,32.815,5.6,32.91,5.6,33.016c0,0.599,0.485,1.083,1.083,1.083
	c0.329,0,0.613-0.153,0.812-0.384l3.825,2.079c-0.071,0.144-0.119,0.301-0.119,0.472c0,0.599,0.484,1.083,1.083,1.083
	c0.394,0,0.723-0.221,0.913-0.535l3.705,2.015c-0.062,0.136-0.1,0.284-0.1,0.443c0,0.599,0.484,1.083,1.083,1.083
	c0.598,0,1.083-0.484,1.083-1.083c0-0.159-0.038-0.308-0.101-0.444l3.705-2.014c0.189,0.314,0.519,0.535,0.912,0.535
	c0.599,0,1.083-0.484,1.083-1.083c0-0.171-0.048-0.328-0.119-0.472l3.825-2.079c0.199,0.23,0.483,0.384,0.812,0.384
	c0.598,0,1.083-0.484,1.083-1.083c0-0.105-0.032-0.201-0.061-0.298l3.684-2.003c0.193,0.298,0.513,0.507,0.894,0.507
	c0.599,0,1.083-0.484,1.083-1.083c0-0.569-0.443-1.023-1.003-1.066v-4.44c0.56-0.044,1.003-0.497,1.003-1.067
	c0-0.569-0.443-1.023-1.003-1.066v-4.44C35.323,18.015,35.767,17.561,35.767,16.991z M5.694,7.948
	c0.168,0.38,0.546,0.647,0.989,0.647c0.599,0,1.083-0.484,1.083-1.083c0-0.228-0.086-0.427-0.206-0.601l3.803-2.113
	c0.188,0.321,0.521,0.547,0.921,0.547c0.598,0,1.083-0.484,1.083-1.083c0-0.184-0.058-0.349-0.139-0.5l3.768-2.094
	c0.194,0.293,0.51,0.499,0.888,0.499c0.377,0,0.694-0.206,0.888-0.499l3.768,2.093c-0.081,0.152-0.139,0.317-0.139,0.501
	c0,0.599,0.485,1.083,1.083,1.083c0.399,0,0.733-0.226,0.921-0.547l3.803,2.113c-0.12,0.174-0.206,0.374-0.206,0.601
	c0,0.599,0.484,1.083,1.083,1.083c0.442,0,0.82-0.267,0.988-0.647l3.633,2.019c-0.063,0.139-0.104,0.289-0.104,0.451
	c0,0.146,0.031,0.283,0.083,0.41l-3.666,1.827c-0.185-0.333-0.526-0.566-0.934-0.566c-0.599,0-1.083,0.484-1.083,1.083
	c0,0.157,0.037,0.305,0.098,0.44l-3.956,1.972c-0.185-0.145-0.406-0.245-0.659-0.245c-0.598,0-1.083,0.484-1.083,1.083
	c0,0.01,0.005,0.018,0.006,0.027l-3.518,1.753c-0.155-0.407-0.544-0.698-1.005-0.698c-0.462,0-0.85,0.291-1.005,0.698l-3.518-1.753
	c0-0.01,0.005-0.018,0.005-0.027c0-0.599-0.485-1.083-1.083-1.083c-0.253,0-0.475,0.1-0.659,0.245l-3.956-1.972
	c0.061-0.135,0.098-0.283,0.098-0.44c0-0.599-0.484-1.083-1.083-1.083c-0.407,0-0.749,0.234-0.934,0.566l-3.666-1.827
	c0.052-0.127,0.083-0.265,0.083-0.41c0-0.163-0.041-0.313-0.105-0.451L5.694,7.948z M13.283,36.68
	c0.053-0.128,0.083-0.268,0.083-0.414c0-0.598-0.485-1.083-1.083-1.083c-0.369,0-0.679,0.196-0.875,0.479l-3.825-2.08
	c0.105-0.167,0.182-0.354,0.182-0.565c0-0.598-0.484-1.083-1.083-1.083c-0.434,0-0.803,0.26-0.976,0.629l-3.641-1.979
	c0.062-0.137,0.1-0.285,0.1-0.444c0-0.569-0.444-1.023-1.003-1.066v-4.441c0.559-0.043,1.003-0.496,1.003-1.066
	c0-0.569-0.444-1.023-1.003-1.066v-4.44c0.559-0.043,1.003-0.498,1.003-1.067c0-0.57-0.444-1.024-1.003-1.067v-4.44
	c0.359-0.028,0.659-0.229,0.834-0.522l3.678,1.833C5.632,12.913,5.6,13.038,5.6,13.171c0,0.598,0.485,1.083,1.083,1.083
	c0.383,0,0.704-0.21,0.896-0.51l3.913,1.95c-0.177,0.193-0.291,0.445-0.291,0.728c0,0.598,0.484,1.083,1.083,1.083
	c0.531,0,0.953-0.39,1.045-0.895l3.518,1.753c-0.017,0.075-0.045,0.145-0.045,0.225c0,0.569,0.444,1.024,1.003,1.067v4.761
	c-0.559,0.043-1.003,0.497-1.003,1.066c0,0.57,0.444,1.023,1.003,1.066v4.762c-0.559,0.043-1.003,0.496-1.003,1.066
	c0,0.569,0.444,1.023,1.003,1.066v4.763c-0.346,0.026-0.635,0.214-0.813,0.489L13.283,36.68z M30.06,32.562
	c-0.173-0.369-0.542-0.629-0.976-0.629c-0.599,0-1.083,0.485-1.083,1.083c0,0.212,0.077,0.398,0.183,0.565l-3.826,2.08
	c-0.195-0.282-0.505-0.479-0.874-0.479c-0.598,0-1.083,0.485-1.083,1.083c0,0.146,0.03,0.286,0.084,0.414l-3.708,2.015
	c-0.179-0.275-0.468-0.464-0.813-0.49v-4.761c0.559-0.043,1.004-0.498,1.004-1.067c0-0.57-0.445-1.024-1.004-1.067v-4.76
	c0.559-0.043,1.004-0.497,1.004-1.067c0-0.569-0.445-1.024-1.004-1.067v-4.76c0.559-0.042,1.004-0.498,1.004-1.067
	c0-0.08-0.029-0.149-0.045-0.224l3.517-1.753c0.093,0.504,0.514,0.895,1.045,0.895c0.599,0,1.083-0.485,1.083-1.083
	c0-0.282-0.114-0.534-0.291-0.727l3.913-1.95c0.192,0.3,0.513,0.51,0.896,0.51c0.598,0,1.083-0.485,1.083-1.083
	c0-0.133-0.032-0.258-0.076-0.376l3.679-1.833c0.175,0.293,0.475,0.494,0.834,0.522v4.44c-0.559,0.043-1.003,0.497-1.003,1.067
	c0,0.569,0.444,1.023,1.003,1.067v4.44c-0.559,0.043-1.003,0.497-1.003,1.066c0,0.57,0.444,1.023,1.003,1.066v4.441
	c-0.559,0.043-1.003,0.497-1.003,1.066c0,0.159,0.038,0.308,0.1,0.444L30.06,32.562z"/>
</svg>
