<?xml version="1.0" encoding="utf-8"?>
<!-- Generator: Adobe Illustrator 16.0.4, SVG Export Plug-In . SVG Version: 6.00 Build 0)  -->
<!DOCTYPE svg PUBLIC "-//W3C//DTD SVG 1.1//EN" "http://www.w3.org/Graphics/SVG/1.1/DTD/svg11.dtd">
<svg version="1.1" id="Layer_1" xmlns="http://www.w3.org/2000/svg" xmlns:xlink="http://www.w3.org/1999/xlink" x="0px" y="0px"
	 width="100px" height="100px" viewBox="423.403 360.289 100 100" enable-background="new 423.403 360.289 100 100"
	 xml:space="preserve">
<path d="M473.405,360.289c-27.614,0-50,22.385-50.002,50c0,27.61,22.388,50,50,50c27.616,0,50-22.386,50-50.002
	C523.405,382.674,501.021,360.289,473.405,360.289z M455.946,376.389c0.976,2.749,2.28,5.617,3.929,8.468
	c1.84,3.185,3.904,6.009,6.042,8.395l-1.403,0.813c-1.701,0.981-2.77,1.919-3.223,2.837c-0.454,0.898-0.535,2.312-0.247,4.223
	c0.479,3.346,2.325,7.804,5.539,13.38c3.26,5.644,6.251,9.49,8.969,11.544c2.412,1.778,4.934,1.921,7.55,0.408l1.552-0.896
	c1.004,3.139,2.447,6.445,4.35,9.74c1.582,2.74,3.331,5.207,5.146,7.364c-3.331,1.513-7.712,2.342-13.156,2.47
	c-3.973-3.08-7.771-6.812-11.391-11.173c-3.614-4.355-7.052-9.366-10.308-15.006c-3.296-5.719-5.943-11.26-7.954-16.652
	c-2.003-5.392-3.368-10.616-4.084-15.677C449.892,381.959,452.79,378.552,455.946,376.389 M467.801,392.069
	c-2.111-2.373-4.158-5.175-5.983-8.336c-1.657-2.871-2.979-5.757-3.951-8.528l0.618-0.36c2.214-1.279,4.037-1.682,5.465-1.219
	c1.431,0.46,2.858,1.915,4.271,4.378C471.929,384.428,471.786,389.114,467.801,392.069 M496.139,441.621
	c-1.833-2.173-3.597-4.675-5.194-7.438c-1.879-3.257-3.314-6.524-4.318-9.629c4.558-1.853,8.688,0.417,12.377,6.823
	c1.375,2.378,1.936,4.284,1.667,5.709c-0.263,1.437-1.393,2.717-3.398,3.882L496.139,441.621"/>
</svg>
