<?xml version="1.0" encoding="utf-8"?>
<!-- Generator: Adobe Illustrator 16.0.4, SVG Export Plug-In . SVG Version: 6.00 Build 0)  -->
<!DOCTYPE svg PUBLIC "-//W3C//DTD SVG 1.1//EN" "http://www.w3.org/Graphics/SVG/1.1/DTD/svg11.dtd">
<svg version="1.1" id="Layer_1" xmlns="http://www.w3.org/2000/svg" xmlns:xlink="http://www.w3.org/1999/xlink" x="0px" y="0px"
	 width="16.544px" height="16.544px" viewBox="0 0 16.544 16.544" enable-background="new 0 0 16.544 16.544" xml:space="preserve">
<g>
	<path fill-rule="evenodd" clip-rule="evenodd" d="M2.025,9.362c0.358-0.418,0.714-0.831,1.072-1.249
		c1.05,0.744,2.056,1.536,3.028,2.38c0.088-0.104,0.171-0.203,0.257-0.303c1.083-1.271,2.225-2.486,3.479-3.594
		c0.709-0.628,1.45-1.212,2.257-1.713c0.024-0.015,0.05-0.029,0.082-0.048c0.301,0.453,0.6,0.9,0.899,1.351
		c-0.01,0.01-0.015,0.018-0.022,0.024c-0.798,0.653-1.499,1.402-2.156,2.194c-1.224,1.47-2.297,3.046-3.274,4.688
		c-0.054,0.089-0.11,0.178-0.161,0.268c-0.025,0.046-0.058,0.058-0.106,0.058c-0.719-0.001-1.436-0.002-2.154,0
		c-0.051,0-0.08-0.018-0.106-0.059c-0.52-0.773-1.06-1.531-1.643-2.256C3.018,10.535,2.542,9.98,2.074,9.42
		C2.06,9.403,2.045,9.386,2.025,9.362z"/>
</g>
<g>
	<polygon points="15.125,16.544 0,16.544 0,1.419 11.625,1.419 11.625,2.419 1,2.419 1,15.544 14.125,15.544 14.125,4.919 
		15.125,4.919 	"/>
</g>
<g>
	<rect x="12.706" y="1.419" width="3.838" height="1"/>
</g>
<g>
	<rect x="14.125" width="1" height="3.838"/>
</g>
</svg>
