<?xml version="1.0" encoding="utf-8"?>
<!-- Generator: Adobe Illustrator 17.0.0, SVG Export Plug-In . SVG Version: 6.00 Build 0)  -->
<!DOCTYPE svg PUBLIC "-//W3C//DTD SVG 1.1//EN" "http://www.w3.org/Graphics/SVG/1.1/DTD/svg11.dtd">
<svg version="1.1" id="Layer_1" xmlns="http://www.w3.org/2000/svg" xmlns:xlink="http://www.w3.org/1999/xlink" x="0px" y="0px"
	 width="39.994px" height="39.993px" viewBox="0 0 39.994 39.993" enable-background="new 0 0 39.994 39.993" xml:space="preserve">
<path fill="#4A494A" d="M38.997,20.247c0-0.574-0.46-1.035-1.03-1.05c-0.118-2.028-0.555-3.999-1.346-5.868
	c-0.896-2.116-2.177-4.017-3.809-5.649c-1.632-1.633-3.532-2.915-5.649-3.809c-1.926-0.816-3.961-1.256-6.056-1.355
	c-0.019-0.566-0.477-1.02-1.048-1.02c-0.576,0-1.042,0.464-1.052,1.039c-1.962,0.134-3.869,0.568-5.681,1.336
	c-2.116,0.895-4.017,2.176-5.65,3.809c-1.633,1.632-2.914,3.531-3.809,5.649c-0.792,1.869-1.228,3.84-1.345,5.867
	c-0.571,0.015-1.031,0.477-1.031,1.051c0,0.574,0.46,1.037,1.031,1.051c0.117,2.027,0.553,3.999,1.345,5.868
	c0.896,2.115,2.177,4.016,3.809,5.647c1.633,1.633,3.532,2.913,5.65,3.809c1.812,0.766,3.719,1.202,5.681,1.336
	c0.011,0.574,0.476,1.037,1.051,1.037c0.57,0,1.027-0.454,1.048-1.018c2.094-0.1,4.129-0.54,6.056-1.355
	c2.116-0.896,4.017-2.177,5.649-3.809c1.632-1.632,2.914-3.532,3.809-5.647c0.791-1.87,1.228-3.841,1.346-5.869
	C38.537,21.282,38.997,20.82,38.997,20.247z M32.64,23.786c-0.056-0.449-0.38-0.796-0.816-0.889c0.087-0.873,0.144-1.753,0.144-2.65
	c0-0.898-0.058-1.78-0.144-2.653c0.435-0.093,0.762-0.439,0.816-0.888c0.032,0.009,0.066,0.017,0.099,0.026
	c1.618,0.463,2.884,1.003,3.77,1.603c0.452,0.306,0.792,0.622,1.018,0.943c-0.376,0.162-0.64,0.534-0.64,0.969
	c0,0.434,0.263,0.807,0.64,0.969c-0.227,0.321-0.567,0.636-1.018,0.943c-0.885,0.599-2.152,1.139-3.77,1.603
	C32.707,23.77,32.671,23.777,32.64,23.786z M30.057,28.722c-0.582,0-1.055,0.472-1.055,1.055c0,0.163,0.044,0.313,0.109,0.45
	c-0.644,0.247-1.304,0.477-1.997,0.671c-0.598,0.167-1.206,0.304-1.824,0.426c-0.069-0.438-0.394-0.771-0.826-0.857
	c0.282-1.379,0.5-2.88,0.657-4.466c0.485-0.044,0.861-0.409,0.934-0.885c1.656-0.165,3.219-0.401,4.647-0.702
	c0.144,0.258,0.387,0.439,0.684,0.505c-0.134,0.744-0.289,1.479-0.489,2.195c-0.16,0.574-0.342,1.128-0.538,1.669
	C30.262,28.753,30.163,28.722,30.057,28.722z M20.063,36.886c-0.391,0-0.717,0.222-0.9,0.537c-0.281-0.223-0.557-0.52-0.826-0.917
	c-0.6-0.885-1.139-2.151-1.603-3.77c-0.027-0.094-0.05-0.199-0.077-0.295c0.275-0.124,0.476-0.365,0.565-0.657
	c0.994,0.111,2.001,0.18,3.027,0.18c1.025,0,2.032-0.069,3.027-0.18c0.09,0.292,0.289,0.534,0.567,0.657
	c-0.027,0.096-0.049,0.2-0.077,0.295c-0.464,1.618-1.004,2.885-1.603,3.77c-0.359,0.529-0.73,0.886-1.108,1.107
	C20.911,37.194,20.529,36.886,20.063,36.886z M10.565,28.722c-0.149,0-0.289,0.032-0.418,0.088c-0.2-0.55-0.387-1.112-0.55-1.696
	c-0.199-0.716-0.354-1.451-0.489-2.193c0.298-0.065,0.544-0.246,0.688-0.506c1.34,0.283,2.799,0.507,4.344,0.67
	c0.063,0.524,0.492,0.935,1.032,0.935c0.071,0,0.132-0.027,0.199-0.041c0.156,1.594,0.377,3.103,0.659,4.487
	c-0.432,0.086-0.757,0.419-0.826,0.857c-0.616-0.122-1.226-0.259-1.822-0.426c-0.657-0.183-1.286-0.4-1.899-0.63
	c0.079-0.148,0.137-0.311,0.137-0.491C11.619,29.194,11.148,28.722,10.565,28.722z M7.756,23.761
	c-1.618-0.463-2.886-1.003-3.77-1.603c-0.452-0.305-0.791-0.62-1.018-0.942c0.376-0.162,0.64-0.535,0.64-0.971
	c0-0.436-0.264-0.808-0.641-0.97c0.227-0.32,0.567-0.635,1.018-0.943c0.885-0.6,2.152-1.139,3.77-1.603
	c0.033-0.01,0.069-0.017,0.101-0.027c0.055,0.448,0.379,0.795,0.814,0.889c-0.087,0.874-0.144,1.756-0.144,2.653
	s0.058,1.776,0.144,2.65c-0.434,0.094-0.761,0.442-0.814,0.889C7.825,23.778,7.789,23.77,7.756,23.761z M10.565,11.772
	c0.583,0,1.055-0.472,1.055-1.055c0-0.18-0.057-0.342-0.137-0.491c0.613-0.231,1.242-0.448,1.899-0.63
	c0.597-0.166,1.206-0.305,1.822-0.426c0.069,0.437,0.394,0.771,0.826,0.856c-0.282,1.385-0.504,2.893-0.659,4.487
	c-0.066-0.013-0.129-0.041-0.199-0.041c-0.541,0-0.97,0.411-1.032,0.935c-1.544,0.163-3.002,0.387-4.342,0.67
	c-0.146-0.259-0.391-0.44-0.689-0.507c0.134-0.741,0.289-1.475,0.489-2.19c0.162-0.584,0.349-1.147,0.55-1.697
	C10.274,11.74,10.415,11.772,10.565,11.772z M20.063,3.607c0.466,0,0.849-0.307,0.989-0.726c0.378,0.22,0.749,0.576,1.108,1.107
	c0.599,0.885,1.139,2.151,1.603,3.77c0.027,0.094,0.05,0.199,0.077,0.295c-0.275,0.123-0.476,0.364-0.566,0.656
	c-0.994-0.112-2.001-0.181-3.028-0.181c-1.025,0-2.034,0.069-3.028,0.181c-0.09-0.291-0.289-0.531-0.565-0.655
	c0.027-0.096,0.049-0.2,0.077-0.296c0.464-1.618,1.003-2.886,1.603-3.77c0.269-0.397,0.545-0.694,0.826-0.917
	C19.345,3.385,19.673,3.607,20.063,3.607z M30.057,11.772c0.107,0,0.205-0.031,0.302-0.061c0.197,0.541,0.379,1.096,0.539,1.67
	c0.199,0.716,0.354,1.45,0.489,2.192c-0.297,0.065-0.541,0.246-0.685,0.505c-1.428-0.301-2.989-0.537-4.646-0.702
	c-0.072-0.477-0.449-0.842-0.934-0.886c-0.155-1.586-0.375-3.086-0.657-4.465c0.432-0.085,0.757-0.419,0.826-0.857
	c0.617,0.121,1.227,0.259,1.824,0.426c0.693,0.192,1.353,0.422,1.998,0.669c-0.066,0.138-0.11,0.288-0.11,0.451
	C29.002,11.299,29.474,11.772,30.057,11.772z M31.81,20.248c0,0.885-0.057,1.756-0.14,2.617c-0.02-0.001-0.039-0.012-0.059-0.012
	c-0.583,0-1.055,0.472-1.055,1.055c0,0.129,0.031,0.25,0.073,0.363c-1.398,0.292-2.925,0.523-4.545,0.685
	c-0.004-0.489-0.344-0.88-0.798-0.995c0.074-1.209,0.115-2.449,0.115-3.714c0-1.265-0.041-2.505-0.115-3.714
	c0.453-0.117,0.794-0.507,0.798-0.995c1.619,0.162,3.145,0.392,4.545,0.685c-0.042,0.114-0.073,0.234-0.073,0.362
	c0,0.583,0.471,1.055,1.055,1.055c0.02,0,0.039-0.011,0.059-0.012C31.754,18.49,31.81,19.362,31.81,20.248z M24.268,30.428
	c-0.583,0-1.055,0.472-1.055,1.055c0,0.054,0.023,0.097,0.03,0.149c-0.984,0.109-1.981,0.177-2.996,0.177s-2.012-0.067-2.996-0.177
	c0.007-0.051,0.03-0.096,0.03-0.149c0-0.582-0.472-1.055-1.055-1.055c-0.016,0-0.029,0.009-0.045,0.01
	c-0.282-1.385-0.502-2.894-0.658-4.488c0.314-0.112,0.547-0.366,0.644-0.688c1.323,0.089,2.686,0.139,4.08,0.139
	c1.291,0,2.559-0.043,3.791-0.119c0.13,0.405,0.486,0.697,0.928,0.725c-0.155,1.573-0.373,3.061-0.651,4.43
	C24.297,30.436,24.284,30.428,24.268,30.428z M9.871,24.273c0.042-0.115,0.073-0.235,0.073-0.364c0-0.582-0.472-1.055-1.055-1.055
	c-0.023,0-0.042,0.012-0.063,0.013c-0.085-0.862-0.14-1.734-0.14-2.617c0-0.886,0.057-1.758,0.14-2.622
	c0.021,0.001,0.041,0.013,0.063,0.013c0.583,0,1.055-0.472,1.055-1.055c0-0.129-0.031-0.249-0.073-0.363
	c1.315-0.275,2.742-0.495,4.252-0.656c0.02,0.566,0.478,1.018,1.048,1.018c0.012,0,0.021-0.006,0.033-0.006
	c-0.072,1.195-0.11,2.421-0.11,3.67c0,1.248,0.04,2.474,0.11,3.669c-0.012,0-0.02-0.006-0.033-0.006
	c-0.57,0-1.027,0.454-1.048,1.019C12.612,24.767,11.186,24.547,9.871,24.273z M16.226,10.066c0.582,0,1.055-0.472,1.055-1.055
	c0-0.054-0.023-0.099-0.03-0.15c0.984-0.11,1.981-0.178,2.996-0.178s2.012,0.068,2.996,0.178c-0.007,0.05-0.03,0.096-0.03,0.15
	c0,0.582,0.471,1.055,1.055,1.055c0.016,0,0.029-0.009,0.045-0.01c0.279,1.368,0.496,2.856,0.651,4.429
	c-0.441,0.029-0.798,0.321-0.927,0.726c-1.232-0.077-2.5-0.12-3.791-0.12c-1.393,0-2.756,0.051-4.08,0.14
	c-0.096-0.322-0.33-0.576-0.645-0.689c0.155-1.594,0.376-3.102,0.658-4.487C16.197,10.058,16.211,10.066,16.226,10.066z
	 M25.244,20.247c0,1.252-0.04,2.484-0.111,3.682c-0.035-0.003-0.065-0.02-0.102-0.02c-0.584,0-1.056,0.474-1.056,1.055
	c0,0.058,0.024,0.107,0.033,0.162c-1.222,0.076-2.48,0.118-3.76,0.118c-1.383,0-2.735-0.05-4.048-0.138
	c0.006-0.049,0.028-0.092,0.028-0.141c0-0.514-0.376-0.924-0.865-1.018c-0.073-1.203-0.114-2.441-0.114-3.7
	c0-1.26,0.041-2.496,0.114-3.701c0.489-0.093,0.865-0.501,0.865-1.018c0-0.05-0.021-0.094-0.028-0.141
	c1.312-0.088,2.666-0.139,4.048-0.139c1.28,0,2.537,0.042,3.76,0.117c-0.01,0.056-0.033,0.105-0.033,0.162
	c0,0.583,0.472,1.055,1.056,1.055c0.036,0,0.066-0.017,0.102-0.02C25.206,17.762,25.244,18.993,25.244,20.247z M37.687,19.243
	c-0.673-1.007-2.355-1.929-4.906-2.66c-0.04-0.012-0.084-0.02-0.123-0.032c-0.019-0.567-0.477-1.023-1.048-1.023
	c-0.025,0-0.046,0.012-0.071,0.014c-0.136-0.747-0.291-1.484-0.491-2.204c-0.161-0.576-0.343-1.134-0.541-1.678
	c0.235-0.112,0.424-0.303,0.524-0.545c0.586,0.299,1.154,0.614,1.685,0.964c1.618,1.063,2.885,2.3,3.77,3.677
	c0.711,1.108,1.142,2.27,1.302,3.465C37.754,19.228,37.72,19.236,37.687,19.243z M29.202,10.132
	c-0.66-0.254-1.336-0.491-2.046-0.688c-0.601-0.167-1.214-0.306-1.834-0.429c0-0.001,0.001-0.002,0.001-0.003
	c0-0.583-0.472-1.055-1.055-1.055c-0.1,0-0.189,0.031-0.281,0.057c-0.027-0.097-0.05-0.204-0.078-0.299
	c-0.769-2.691-1.754-4.399-2.827-4.991c0.002-0.011,0.004-0.019,0.006-0.03c1.26,0.135,2.485,0.566,3.649,1.314
	c1.378,0.886,2.614,2.154,3.677,3.77c0.417,0.634,0.787,1.321,1.134,2.034C29.407,9.891,29.293,10,29.202,10.132z M19.086,2.937
	c-0.944,0.739-1.809,2.361-2.501,4.776c-0.027,0.096-0.051,0.201-0.078,0.3c-0.092-0.026-0.181-0.057-0.281-0.057
	c-0.582,0-1.055,0.471-1.055,1.055c0,0.001,0.001,0.003,0.001,0.004c-0.619,0.121-1.232,0.26-1.833,0.427
	c-0.674,0.187-1.318,0.41-1.948,0.649c-0.11-0.147-0.244-0.273-0.414-0.346c0.336-0.689,0.697-1.354,1.101-1.97
	c1.064-1.616,2.301-2.884,3.678-3.77c1.052-0.676,2.152-1.102,3.284-1.28C19.056,2.799,19.059,2.872,19.086,2.937z M10.014,11.594
	c-0.208,0.566-0.402,1.144-0.568,1.745c-0.199,0.719-0.356,1.456-0.491,2.202c-0.024-0.001-0.043-0.013-0.066-0.013
	c-0.571,0-1.032,0.456-1.049,1.023c-0.041,0.011-0.085,0.02-0.124,0.033c-2.551,0.73-4.233,1.651-4.906,2.658
	c-0.034-0.009-0.067-0.016-0.102-0.02c0.16-1.195,0.589-2.357,1.302-3.465c0.886-1.378,2.154-2.614,3.769-3.677
	c0.566-0.372,1.173-0.704,1.801-1.019C9.658,11.288,9.814,11.469,10.014,11.594z M2.81,21.251c0.673,1.007,2.355,1.929,4.905,2.659
	c0.04,0.012,0.085,0.02,0.124,0.032c0.019,0.567,0.478,1.023,1.049,1.023c0.024,0,0.043-0.012,0.066-0.014
	c0.135,0.747,0.29,1.485,0.491,2.205c0.167,0.601,0.36,1.179,0.568,1.743c-0.2,0.126-0.356,0.306-0.435,0.534
	c-0.627-0.315-1.235-0.647-1.801-1.019c-1.616-1.064-2.884-2.301-3.769-3.679c-0.711-1.107-1.142-2.269-1.302-3.463
	C2.741,21.266,2.776,21.261,2.81,21.251z M11.394,30.399c0.628,0.239,1.272,0.462,1.946,0.649c0.601,0.167,1.213,0.306,1.834,0.429
	c0,0.002-0.001,0.003-0.001,0.006c0,0.583,0.472,1.055,1.055,1.055c0.1,0,0.19-0.031,0.281-0.057
	c0.027,0.097,0.05,0.204,0.078,0.298c0.692,2.416,1.556,4.039,2.501,4.779c-0.026,0.064-0.03,0.138-0.042,0.21
	c-1.131-0.178-2.232-0.604-3.284-1.28c-1.378-0.886-2.614-2.152-3.678-3.77c-0.405-0.615-0.765-1.28-1.102-1.97
	C11.15,30.673,11.284,30.546,11.394,30.399z M21.084,37.771c1.072-0.591,2.056-2.3,2.827-4.992c0.027-0.095,0.051-0.2,0.078-0.298
	c0.091,0.026,0.18,0.057,0.281,0.057c0.582,0,1.055-0.471,1.055-1.055c0-0.003-0.001-0.004-0.001-0.006
	c0.619-0.122,1.232-0.261,1.834-0.429c0.709-0.198,1.385-0.435,2.045-0.688c0.092,0.134,0.207,0.244,0.348,0.324
	c-0.346,0.714-0.717,1.399-1.135,2.034c-1.063,1.618-2.3,2.884-3.677,3.77c-1.164,0.748-2.389,1.176-3.648,1.314
	C21.088,37.791,21.084,37.782,21.084,37.771z M30.508,28.832c0.197-0.543,0.379-1.1,0.54-1.676c0.2-0.72,0.357-1.46,0.492-2.206
	c0.024,0.001,0.045,0.014,0.07,0.014c0.57,0,1.031-0.455,1.048-1.022c0.04-0.011,0.084-0.02,0.123-0.032
	c2.551-0.731,4.233-1.653,4.906-2.66c0.033,0.009,0.066,0.015,0.102,0.019c-0.16,1.195-0.589,2.357-1.302,3.465
	c-0.886,1.378-2.154,2.615-3.77,3.679c-0.53,0.349-1.1,0.664-1.685,0.962C30.931,29.134,30.742,28.945,30.508,28.832z M32.706,7.79
	c1.618,1.619,2.887,3.502,3.774,5.599c0.658,1.556,1.075,3.183,1.262,4.854c-0.229-0.88-0.595-1.74-1.126-2.57
	c-0.898-1.396-2.18-2.649-3.814-3.723c-0.546-0.36-1.134-0.684-1.738-0.99c0.019-0.079,0.049-0.156,0.049-0.242
	c0-0.582-0.472-1.055-1.055-1.055c-0.132,0-0.255,0.031-0.372,0.075c-0.348-0.717-0.721-1.407-1.14-2.043
	c-1.076-1.634-2.329-2.917-3.724-3.815c-0.83-0.534-1.693-0.898-2.575-1.128c1.671,0.189,3.301,0.604,4.86,1.264
	C29.203,4.901,31.087,6.171,32.706,7.79z M4.016,13.389c0.886-2.098,2.156-3.98,3.775-5.599c1.618-1.618,3.502-2.887,5.599-3.775
	c1.558-0.659,3.187-1.075,4.86-1.264c-0.882,0.229-1.745,0.594-2.577,1.128c-1.396,0.898-2.649,2.181-3.723,3.815
	c-0.416,0.63-0.784,1.312-1.129,2.02c-0.085-0.021-0.166-0.051-0.257-0.051c-0.582,0-1.055,0.472-1.055,1.055
	c0,0.065,0.027,0.123,0.037,0.185C8.9,11.226,8.273,11.567,7.692,11.95c-1.633,1.076-2.917,2.328-3.814,3.723
	C3.346,16.5,2.982,17.36,2.753,18.238C2.943,16.569,3.357,14.944,4.016,13.389z M7.791,32.703c-1.618-1.618-2.889-3.501-3.775-5.599
	c-0.659-1.556-1.075-3.183-1.263-4.855c0.229,0.88,0.594,1.74,1.126,2.569c0.898,1.396,2.181,2.647,3.814,3.723
	c0.582,0.382,1.207,0.724,1.854,1.048c-0.012,0.063-0.037,0.121-0.037,0.186c0,0.582,0.472,1.055,1.055,1.055
	c0.091,0,0.172-0.03,0.257-0.052c0.345,0.708,0.714,1.391,1.129,2.021c1.076,1.635,2.328,2.919,3.723,3.814
	c0.822,0.528,1.674,0.891,2.546,1.123c-1.662-0.191-3.281-0.604-4.829-1.259C11.292,35.591,9.408,34.321,7.791,32.703z
	 M36.48,27.104c-0.888,2.098-2.158,3.981-3.775,5.599c-1.62,1.618-3.502,2.887-5.601,3.775c-1.548,0.657-3.168,1.07-4.831,1.26
	c0.873-0.23,1.726-0.595,2.549-1.123c1.396-0.896,2.649-2.179,3.724-3.814c0.419-0.637,0.793-1.326,1.141-2.044
	c0.116,0.044,0.239,0.075,0.372,0.075c0.582,0,1.055-0.472,1.055-1.055c0-0.087-0.029-0.163-0.049-0.244
	c0.605-0.306,1.191-0.631,1.738-0.991c1.634-1.075,2.917-2.327,3.814-3.723c0.533-0.829,0.898-1.692,1.127-2.571
	C37.554,23.92,37.139,25.547,36.48,27.104z"/>
</svg>
