<?xml version="1.0" encoding="utf-8"?>
<!-- Generator: Adobe Illustrator 16.0.0, SVG Export Plug-In . SVG Version: 6.00 Build 0)  -->
<!DOCTYPE svg PUBLIC "-//W3C//DTD SVG 1.1//EN" "http://www.w3.org/Graphics/SVG/1.1/DTD/svg11.dtd">
<svg version="1.1" id="Layer_1" xmlns="http://www.w3.org/2000/svg" xmlns:xlink="http://www.w3.org/1999/xlink" x="0px" y="0px"
	 width="15.52px" height="15.52px" viewBox="0 0 15.52 15.52" enable-background="new 0 0 15.52 15.52" xml:space="preserve">
<g>
	<path fill-rule="evenodd" clip-rule="evenodd" d="M3.01,2.477c2.886,0,5.766,0,8.657,0c0,1.621,0,3.238,0,4.855
		c0.7,0,1.389,0,2.075,0c0-2.316,0-4.627,0-6.937c-4.277,0-8.546,0-12.818,0c0,4.631,0,9.257,0,13.887c2.14,0,4.272,0,6.404,0
		c0-0.694,0-1.383,0-2.08c-1.443,0-2.881,0-4.318,0C3.01,8.954,3.01,5.716,3.01,2.477z"/>
	<path fill-rule="evenodd" clip-rule="evenodd" d="M12.484,11.349c-1.899-1.899-3.795-3.794-5.681-5.68
		C6.309,6.163,5.82,6.651,5.32,7.151c1.907,1.906,3.817,3.817,5.732,5.731c-0.695,0.744-1.39,1.49-2.093,2.243
		c1.89,0,3.763,0,5.637,0c0-2.013,0-4.019,0-6.04C13.885,9.847,13.186,10.596,12.484,11.349z"/>
</g>
</svg>
