<?xml version="1.0" encoding="utf-8"?>
<!-- Generator: Adobe Illustrator 16.0.4, SVG Export Plug-In . SVG Version: 6.00 Build 0)  -->
<!DOCTYPE svg PUBLIC "-//W3C//DTD SVG 1.1//EN" "http://www.w3.org/Graphics/SVG/1.1/DTD/svg11.dtd">
<svg version="1.1" id="Layer_1" xmlns="http://www.w3.org/2000/svg" xmlns:xlink="http://www.w3.org/1999/xlink" x="0px" y="0px"
	 width="8.173px" height="12.721px" viewBox="0 0 8.173 12.721" enable-background="new 0 0 8.173 12.721" xml:space="preserve">
<g>
	<path fill-rule="evenodd" clip-rule="evenodd" d="M0.894,5.116c0-0.027,0-0.048,0-0.068c0-0.634-0.004-1.268,0.001-1.902
		c0.01-1.192,0.711-2.297,1.784-2.818c1.82-0.886,3.979,0.103,4.497,2.059c0.072,0.272,0.104,0.551,0.104,0.833
		c-0.001,0.609-0.001,1.22-0.001,1.829c0,0.021,0,0.041,0,0.068c0.062,0,0.117-0.001,0.174,0c0.069,0.001,0.14-0.002,0.209,0.007
		c0.301,0.039,0.512,0.282,0.512,0.589c0.001,1.186,0,4.371,0,5.557c0,0.283,0.001,0.567,0,0.851
		c-0.001,0.349-0.254,0.602-0.604,0.602c-2.322,0-4.644,0-6.967,0C0.252,12.721,0,12.468,0,12.115c-0.001-1.464-0.001-4.929,0-6.393
		C0,5.37,0.251,5.117,0.604,5.116C0.697,5.115,0.791,5.116,0.894,5.116z M5.681,5.114c0-0.015,0.001-0.024,0.001-0.033
		c0-0.644,0.008-1.288-0.001-1.931c-0.016-0.983-0.942-1.72-1.905-1.522C3.021,1.781,2.494,2.423,2.49,3.196
		C2.488,3.82,2.489,4.444,2.489,5.069c0,0.014,0.002,0.027,0.004,0.045C3.556,5.114,4.615,5.114,5.681,5.114z"/>
</g>
</svg>
