<?xml version="1.0" encoding="utf-8"?>
<!-- Generator: Adobe Illustrator 16.0.4, SVG Export Plug-In . SVG Version: 6.00 Build 0)  -->
<!DOCTYPE svg PUBLIC "-//W3C//DTD SVG 1.1//EN" "http://www.w3.org/Graphics/SVG/1.1/DTD/svg11.dtd">
<svg version="1.1" id="Layer_2" xmlns="http://www.w3.org/2000/svg" xmlns:xlink="http://www.w3.org/1999/xlink" x="0px" y="0px"
	 width="25.776px" height="25.776px" viewBox="0 0 25.776 25.776" enable-background="new 0 0 25.776 25.776" xml:space="preserve">
<path fill="#E6E7E8" d="M23.179,2.597c-3.462-3.462-9.075-3.462-12.538,0c-3.462,3.462-3.462,9.075,0,12.538
	c3.463,3.462,9.076,3.462,12.538,0C26.642,11.672,26.642,6.059,23.179,2.597z M12.361,13.416c-2.513-2.513-2.513-6.587,0-9.1
	c2.513-2.513,6.587-2.513,9.1,0c2.513,2.513,2.513,6.587,0,9.1C18.948,15.928,14.874,15.928,12.361,13.416z M1.668,25.776L0,24.107
	l8.695-8.695l1.668,1.668L1.668,25.776z"/>
</svg>
