<?xml version="1.0" encoding="utf-8"?>
<!-- Generator: Adobe Illustrator 16.0.0, SVG Export Plug-In . SVG Version: 6.00 Build 0)  -->
<!DOCTYPE svg PUBLIC "-//W3C//DTD SVG 1.1//EN" "http://www.w3.org/Graphics/SVG/1.1/DTD/svg11.dtd">
<svg version="1.1" id="Layer_1" xmlns="http://www.w3.org/2000/svg" xmlns:xlink="http://www.w3.org/1999/xlink" x="0px" y="0px"
	 width="15.125px" height="15.125px" viewBox="0 0 15.125 15.125" enable-background="new 0 0 15.125 15.125" xml:space="preserve">
<path d="M15.125,15.125H0V0h15.125V15.125z M1,14.125h13.125V1H1V14.125z"/>
<g>
	<path d="M4.185,10.881c0.003-0.05,0.007-0.099,0.011-0.15c0.058-0.914,0.321-1.769,0.771-2.563C5.405,7.395,5.98,6.744,6.706,6.23
		c0.578-0.41,1.211-0.696,1.905-0.842c0.3-0.062,0.602-0.096,0.906-0.101c0.015,0,0.028,0,0.047,0c0-0.395,0-0.786,0-1.184
		c0.014,0.012,0.021,0.018,0.026,0.026c0.716,0.741,1.431,1.483,2.146,2.225c0.012,0.011,0.022,0.021,0.035,0.031
		c0,0.002,0,0.004,0,0.006c-0.205,0.212-0.41,0.424-0.613,0.637c-0.523,0.541-1.045,1.082-1.565,1.623
		C9.587,8.658,9.581,8.667,9.575,8.676C9.572,8.674,9.568,8.673,9.566,8.671c0-0.391,0-0.78,0-1.174
		c-0.014,0-0.022-0.002-0.032-0.002c-0.319,0.003-0.636,0.032-0.949,0.09C7.611,7.764,6.739,8.167,5.971,8.792
		c-0.547,0.446-0.997,0.976-1.327,1.604c-0.204,0.391-0.348,0.802-0.417,1.236c-0.001,0.008-0.003,0.016-0.011,0.024
		c-0.003-0.035-0.007-0.071-0.011-0.106c-0.003-0.037-0.005-0.072-0.008-0.107c-0.004-0.062-0.008-0.125-0.013-0.188
		C4.185,11.13,4.185,11.006,4.185,10.881z"/>
</g>
</svg>
