<?xml version="1.0" encoding="utf-8"?>
<!-- Generated by IcoMoon.io -->
<!DOCTYPE svg PUBLIC "-//W3C//DTD SVG 1.1//EN" "http://www.w3.org/Graphics/SVG/1.1/DTD/svg11.dtd">
<svg version="1.1" xmlns="http://www.w3.org/2000/svg" xmlns:xlink="http://www.w3.org/1999/xlink" width="76" height="32" viewBox="0 0 76 32">
<path fill="#000000" d="M33.263 9.308h-19.063c-1.543 0-2.795-1.252-2.795-2.796 0-1.543 1.252-2.796 2.795-2.796h19.063c1.544 0 2.796 1.253 2.796 2.796-0 1.545-1.252 2.796-2.796 2.796zM29.525 23.308h-19.063c-1.543 0-2.795-1.252-2.795-2.796s1.252-2.795 2.795-2.795h19.063c1.544 0 2.797 1.251 2.797 2.795s-1.252 2.796-2.797 2.796zM4.851 10.695h19.063c1.544 0 2.796 1.252 2.796 2.796 0 1.543-1.251 2.796-2.796 2.796h-19.063c-1.544 0-2.796-1.253-2.796-2.796 0-1.544 1.251-2.796 2.796-2.796zM41.313 3.876l-1.186 4.386h5.895l-4.014 14.877h5.075l3.984-14.877h5.894l1.162-4.386zM59.598 3.876l-5.173 19.263h15.488l1.132-4.245h-10.5l0.948-3.502h9.374l1.047-3.907h-9.376l0.919-3.363h10.466l1.157-4.245zM36.466 29.027c0-0.953 0.791-1.724 1.724-1.724 0.644 0 0.998 0.295 1.201 0.644l-0.635 0.447c-0.146-0.224-0.304-0.382-0.631-0.382-0.436 0-0.84 0.475-0.84 1.015 0 0.377 0.251 0.616 0.572 0.616 0.257 0 0.442-0.103 0.661-0.287l0.425 0.539c-0.305 0.273-0.616 0.453-1.112 0.453-0.797-0-1.365-0.524-1.365-1.321zM39.441 28.995c0-0.873 0.753-1.691 1.692-1.691 0.867 0 1.406 0.573 1.406 1.352 0 0.873-0.752 1.692-1.691 1.692-0.868-0-1.408-0.574-1.408-1.354zM41.727 28.678c0-0.425-0.256-0.666-0.633-0.666-0.507 0-0.84 0.547-0.84 0.961 0 0.426 0.257 0.665 0.634 0.665 0.507 0 0.84-0.546 0.84-0.96zM43.435 27.358h0.829l-0.082 0.305c0.209-0.186 0.47-0.36 0.798-0.36 0.524 0 0.861 0.321 0.861 0.85 0 0.164-0.047 0.373-0.096 0.556l-0.42 1.574h-0.83l0.431-1.606c0.022-0.082 0.038-0.191 0.038-0.261 0-0.235-0.147-0.36-0.403-0.36-0.328 0-0.54 0.234-0.634 0.583l-0.442 1.644h-0.829l0.78-2.925zM46.813 27.358h0.83l-0.082 0.305c0.209-0.186 0.47-0.36 0.799-0.36 0.522 0 0.86 0.321 0.86 0.85 0 0.164-0.047 0.373-0.097 0.556l-0.421 1.574h-0.829l0.43-1.606c0.023-0.082 0.038-0.191 0.038-0.261 0-0.235-0.147-0.36-0.404-0.36-0.326 0-0.54 0.234-0.632 0.583l-0.442 1.644h-0.828l0.778-2.925zM51.044 29.682c0.217 0 0.41-0.064 0.65-0.234l0.38 0.514c-0.261 0.217-0.627 0.387-1.123 0.387-0.84 0-1.353-0.491-1.353-1.299 0-0.845 0.687-1.745 1.735-1.745 0.758 0 1.195 0.49 1.195 1.139 0 0.209-0.054 0.443-0.147 0.668h-2.003c0.027 0.343 0.23 0.572 0.666 0.572zM51.72 28.591c0.016-0.054 0.027-0.119 0.027-0.191 0-0.241-0.142-0.43-0.48-0.43-0.377 0-0.681 0.251-0.819 0.621h1.272zM52.916 29.027c0-0.953 0.792-1.724 1.724-1.724 0.642 0 0.998 0.295 1.201 0.644l-0.634 0.447c-0.148-0.224-0.306-0.382-0.634-0.382-0.437 0-0.839 0.475-0.839 1.015 0 0.377 0.251 0.616 0.571 0.616 0.257 0 0.443-0.103 0.661-0.287l0.425 0.539c-0.304 0.273-0.616 0.453-1.113 0.453-0.796-0-1.364-0.524-1.364-1.321zM56.043 29.759c0-0.12 0.021-0.235 0.055-0.366l0.354-1.326h-0.349l0.19-0.71h0.35l0.202-0.746h0.829l-0.201 0.746h0.687l-0.191 0.71h-0.687l-0.327 1.228c-0.011 0.043-0.023 0.098-0.023 0.13 0 0.111 0.072 0.175 0.225 0.175 0.13 0 0.288-0.034 0.425-0.093l-0.19 0.704c-0.166 0.076-0.378 0.119-0.601 0.119-0.502 0-0.748-0.25-0.748-0.572zM58.81 27.358h0.829l-0.785 2.925h-0.831l0.787-2.925zM59.077 26.298h0.873l-0.203 0.739h-0.872l0.202-0.739zM60.12 27.358h0.851l0.131 1.948 1.161-1.948h0.89l-1.927 2.947h-0.753zM63.689 27.358h0.829l-0.784 2.925h-0.83l0.785-2.925zM63.957 26.298h0.872l-0.202 0.739h-0.872l0.202-0.739zM64.835 29.759c0-0.12 0.022-0.235 0.055-0.366l0.354-1.326h-0.35l0.192-0.71h0.349l0.202-0.746h0.828l-0.2 0.746h0.687l-0.19 0.71h-0.688l-0.327 1.228c-0.011 0.043-0.022 0.098-0.022 0.13 0 0.111 0.070 0.175 0.224 0.175 0.132 0 0.289-0.034 0.426-0.093l-0.191 0.704c-0.164 0.076-0.378 0.119-0.601 0.119-0.502 0-0.747-0.25-0.747-0.572zM66.582 30.97l0.441-0.6c0.088 0.065 0.213 0.114 0.322 0.114 0.125 0 0.209-0.033 0.32-0.18l-0.358-2.946h0.846l0.137 1.986 1.095-1.986h0.894l-1.812 2.995c-0.381 0.594-0.708 0.819-1.204 0.819-0.302-0-0.504-0.076-0.683-0.202z"></path>
</svg>
