<?xml version="1.0" encoding="utf-8"?>
<!-- Generator: Adobe Illustrator 16.0.4, SVG Export Plug-In . SVG Version: 6.00 Build 0)  -->
<!DOCTYPE svg PUBLIC "-//W3C//DTD SVG 1.1//EN" "http://www.w3.org/Graphics/SVG/1.1/DTD/svg11.dtd">
<svg version="1.1" id="Layer_2" xmlns="http://www.w3.org/2000/svg" xmlns:xlink="http://www.w3.org/1999/xlink" x="0px" y="0px"
	 width="12.176px" height="9.896px" viewBox="961.524 737.882 12.176 9.896" enable-background="new 961.524 737.882 12.176 9.896"
	 xml:space="preserve">
<path fill="#D1D3D4" d="M972.455,740.348c0.004,0.106,0.005,0.215,0.005,0.322c0,3.302-2.511,7.108-7.106,7.108
	c-1.41,0-2.723-0.415-3.829-1.124c0.195,0.022,0.393,0.033,0.596,0.033c1.169,0,2.248-0.397,3.101-1.068
	c-1.092-0.021-2.014-0.742-2.332-1.734c0.152,0.031,0.309,0.044,0.47,0.044c0.229,0,0.448-0.029,0.657-0.085
	c-1.142-0.229-2.003-1.24-2.003-2.449v-0.033c0.339,0.189,0.724,0.301,1.133,0.312c-0.671-0.448-1.113-1.212-1.113-2.077
	c0-0.459,0.125-0.887,0.34-1.257c1.232,1.513,3.07,2.505,5.149,2.609c-0.044-0.183-0.066-0.372-0.066-0.57
	c0-1.379,1.118-2.497,2.5-2.497c0.718,0,1.366,0.305,1.824,0.791c0.567-0.114,1.102-0.32,1.583-0.608
	c-0.187,0.585-0.582,1.073-1.097,1.383c0.505-0.061,0.987-0.196,1.435-0.395C973.363,739.553,972.943,739.995,972.455,740.348"/>
</svg>
