<svg id="Layer_1" data-name="Layer 1" xmlns="http://www.w3.org/2000/svg" viewBox="0 0 199.57 200.43"><defs><style>.cls-1{fill:#010101;}</style></defs><title>twogears</title><path class="cls-1" d="M61.07,144.06c-2.34-.25-4.11-2.49-4.11-5.3V125.53c0-2.81,1.77-5,4.11-5.3l.07,0a41.38,41.38,0,1,1,58-59,5.07,5.07,0,0,1,5.22-3.76H137.6c2.81,0,5,1.77,5.3,4.11l2.79,12.88A58.75,58.75,0,0,1,161,80.75l11.32-7.29c1.83-1.47,4.66-1.14,6.65.84l.18.18L176.7,64a2,2,0,0,0-2.36-1.46l-18.29,1.68a70.83,70.83,0,0,0-4.77-9.74l12.56-13.4a2,2,0,0,0,.3-2.76l-7.39-9.17a2,2,0,0,0-2.76-.3l-15.78,9.42a71.45,71.45,0,0,0-8.49-6.75L135.26,14a2,2,0,0,0-.92-2.62L123.72,6.33a2,2,0,0,0-2.62.92L110.95,22.53a70.71,70.71,0,0,0-10.59-2.39L97.8,2a2,2,0,0,0-2-2H84.06a2,2,0,0,0-2,2L79.54,20.15a70.63,70.63,0,0,0-12.84,3.14L56,8.34a2,2,0,0,0-2.65-.83L42.94,12.94a2,2,0,0,0-.83,2.65l6.13,17.32a71.5,71.5,0,0,0-8.27,7L23.87,31a2,2,0,0,0-2.75.39L14,40.84a2,2,0,0,0,.39,2.75l13,13A70.77,70.77,0,0,0,23,66.46L4.67,65.39a2,2,0,0,0-2.31,1.54L0,78.48a2,2,0,0,0,1.54,2.31L18.9,86.88q-.09,1.81-.09,3.65a72,72,0,0,0,.36,7.2l-17,6.95a2,2,0,0,0-1.42,2.38l2.89,11.41A2,2,0,0,0,6,119.89l18.24-2a70.9,70.9,0,0,0,4.94,9.67l-12.33,13.6a2,2,0,0,0-.25,2.76l7.54,9a2,2,0,0,0,2.76.25l15.62-9.68a71.41,71.41,0,0,0,8.61,6.59l-5.25,17.61a2,2,0,0,0,1,2.6l10.7,4.91a2,2,0,0,0,2.6-1l9.9-15.47a70.65,70.65,0,0,0,9.15,2,58.69,58.69,0,0,1-5.65-14.05Z"/><path class="cls-1" d="M198.19,123.05l-14.83-3.21a53.73,53.73,0,0,0-7.2-17.1l8.11-12.6c.54-.54.3-1.65-.52-2.48l-9-9c-.83-.83-1.94-1.06-2.48-.52l-12.66,8.15a53.72,53.72,0,0,0-17.33-7.14l-3.13-14.45c0-.76-1-1.38-2.12-1.38H124.31c-1.17,0-2.12.62-2.12,1.38l-3.13,14.45a53.73,53.73,0,0,0-17.59,7.32L89.27,78.6c-.54-.54-1.65-.3-2.48.52l-9,9c-.83.83-1.06,1.94-.52,2.48l7.87,12.22a53.72,53.72,0,0,0-7.34,17.87l-14,3c-.76,0-1.38,1-1.38,2.12v12.73c0,1.17.62,2.12,1.38,2.12l14.1,3.05a53.75,53.75,0,0,0,7.56,17.84l-7.74,12c-.54.54-.3,1.65.52,2.48l9,9c.83.83,1.94,1.06,2.48.52L102,177.74a53.72,53.72,0,0,0,17.81,7.16l3.07,14.16c0,.76,1,1.38,2.12,1.38h12.73c1.17,0,2.12-.62,2.12-1.38L143,184.57a53.75,53.75,0,0,0,17.35-7.44l12.43,8c.54.54,1.65.3,2.48-.52l9-9c.83-.83,1.06-1.94.52-2.48l-8.16-12.67a53.72,53.72,0,0,0,7-17.27L198.19,140c.76,0,1.38-1,1.38-2.12V125.17C199.57,124,198.95,123.05,198.19,123.05Zm-38.43,8.88a29.08,29.08,0,1,1-29.08-29.08A29.08,29.08,0,0,1,159.76,131.93Z"/><path class="cls-1" d="M131,114.75a17.12,17.12,0,1,0,17.12,17.12A17.14,17.14,0,0,0,131,114.75Z"/></svg>