<svg xmlns="http://www.w3.org/2000/svg" xmlns:xlink="http://www.w3.org/1999/xlink" version="1.1" id="Layer_1" x="0px" y="0px" width="50px" height="51px" viewBox="11.0283 11.5556 28.2586 28.6788" enable-background="new 0 0 50 52" xml:space="preserve"  preserveAspectRatio="xMidYMid meet"><rect id="svgEditorBackground" x="0" y="0" width="50" height="52" style="fill: none; stroke: none;"/>
<path d="M31.902,16.213c-3.577,3.572-1.963,1.903-5.518,5.45c0.93,0.931,1.849,1.853,2.788,2.794  c3.59-3.584,2.008-1.947,5.615-5.546c1.399,1.31,2.802,2.619,4.219,3.943c0.003-3.559,0.007-7.084,0.01-10.611  c-3.787-0.004-7.563-0.007-11.369-0.011C29.079,13.571,30.487,14.889,31.902,16.213z"/>
<rect x="11.266" y="12.232" width="11.97" height="11.97"/>
<rect x="11.266" y="28.015" width="11.97" height="11.97"/>
<rect x="27.016" y="28.015" width="11.97" height="11.97"/>
</svg>