<?xml version="1.0" encoding="utf-8"?>
<!-- Generator: Adobe Illustrator 16.0.0, SVG Export Plug-In . SVG Version: 6.00 Build 0)  -->
<!DOCTYPE svg PUBLIC "-//W3C//DTD SVG 1.1//EN" "http://www.w3.org/Graphics/SVG/1.1/DTD/svg11.dtd">
<svg version="1.1" id="Layer_1" xmlns="http://www.w3.org/2000/svg" xmlns:xlink="http://www.w3.org/1999/xlink" x="0px" y="0px"
	 width="15.52px" height="15.52px" viewBox="0 0 15.52 15.52" enable-background="new 0 0 15.52 15.52" xml:space="preserve">
<g>
	<path d="M12.51,13.043c-2.886,0-5.766,0-8.657,0c0-1.621,0-3.238,0-4.855c-0.7,0-1.389,0-2.075,0c0,2.316,0,4.627,0,6.938
		c4.277,0,8.547,0,12.818,0c0-4.631,0-9.257,0-13.888c-2.14,0-4.271,0-6.404,0c0,0.694,0,1.384,0,2.08c1.443,0,2.882,0,4.318,0
		C12.51,6.566,12.51,9.804,12.51,13.043z"/>
	<path d="M3.036,4.171c1.898,1.898,3.795,3.794,5.681,5.68C9.211,9.357,9.7,8.869,10.2,8.369C8.293,6.463,6.383,4.552,4.468,2.638
		c0.695-0.744,1.39-1.49,2.093-2.243c-1.89,0-3.763,0-5.637,0c0,2.014,0,4.02,0,6.04C1.635,5.673,2.334,4.924,3.036,4.171z"/>
</g>
</svg>
