<?xml version="1.0" encoding="utf-8"?>
<!-- Generator: Adobe Illustrator 16.0.4, SVG Export Plug-In . SVG Version: 6.00 Build 0)  -->
<!DOCTYPE svg PUBLIC "-//W3C//DTD SVG 1.1//EN" "http://www.w3.org/Graphics/SVG/1.1/DTD/svg11.dtd">
<svg version="1.1" id="Layer_1" xmlns="http://www.w3.org/2000/svg" xmlns:xlink="http://www.w3.org/1999/xlink" x="0px" y="0px"
	 width="21.479px" height="21.261px" viewBox="0 0 21.479 21.261" enable-background="new 0 0 21.479 21.261" xml:space="preserve">
<g>
	<path fill-rule="evenodd" clip-rule="evenodd" fill="#949494" d="M21.479,19.225c-0.018,0.096-0.033,0.192-0.055,0.288
		c-0.247,1.129-1.269,1.865-2.416,1.732c-0.507-0.059-0.935-0.289-1.29-0.654c-0.889-0.912-1.777-1.824-2.667-2.737
		c-2.674-2.745-5.349-5.49-8.025-8.234C6.732,9.317,6.416,9.04,6.055,8.818c-0.423-0.26-0.861-0.301-1.338-0.146
		C3.735,8.991,2.813,8.826,1.958,8.267C0.987,7.632,0.416,6.72,0.147,5.606C0.083,5.34,0.058,5.064,0.015,4.795
		C0.011,4.771,0.005,4.748,0,4.726C0,4.6,0,4.475,0,4.349C0.056,4.266,0.112,4.183,0.175,4.09C0.208,4.111,0.241,4.13,0.272,4.15
		C0.981,4.603,1.69,5.056,2.399,5.506c0.496,0.315,1.105,0.292,1.596-0.1C4.577,4.94,4.963,4.338,5.09,3.595
		c0.076-0.45-0.029-0.868-0.32-1.227C4.687,2.267,4.58,2.177,4.47,2.104C3.796,1.659,3.117,1.22,2.44,0.778
		C2.426,0.77,2.412,0.758,2.39,0.741C2.48,0.609,2.534,0.466,2.707,0.398c0.936-0.365,1.892-0.506,2.885-0.31
		C6.005,0.17,6.413,0.29,6.758,0.527C7.41,0.975,8.046,1.442,8.416,2.181C8.72,2.787,8.828,3.423,8.757,4.09
		C8.723,4.416,8.653,4.737,8.604,5.062C8.539,5.49,8.611,5.893,8.879,6.238c0.207,0.266,0.416,0.536,0.66,0.764
		c3.749,3.493,7.504,6.979,11.258,10.467c0.378,0.351,0.598,0.783,0.666,1.293c0.003,0.023,0.011,0.046,0.017,0.068
		C21.479,18.962,21.479,19.093,21.479,19.225z M18.132,19.053c-0.001,0.648,0.512,1.146,1.174,1.156
		c0.565,0.01,1.104-0.5,1.101-1.131c-0.003-0.658-0.493-1.167-1.136-1.168C18.612,17.909,18.133,18.392,18.132,19.053z"/>
</g>
</svg>
