<?xml version="1.0" encoding="utf-8"?>
<!-- Generator: Adobe Illustrator 16.0.5, SVG Export Plug-In . SVG Version: 6.00 Build 0)  -->
<!DOCTYPE svg PUBLIC "-//W3C//DTD SVG 1.1//EN" "http://www.w3.org/Graphics/SVG/1.1/DTD/svg11.dtd">
<svg version="1.1" id="YouTube_Logo" xmlns="http://www.w3.org/2000/svg" xmlns:xlink="http://www.w3.org/1999/xlink" x="0px"
	 y="0px" width="50px" height="20.865px" viewBox="0 0 50 20.865" enable-background="new 0 0 50 20.865" xml:space="preserve">
<g id="You">
	<path id="u_2_" d="M18.666,16.885H16.77v-1.098c-0.719,0.823-1.328,1.239-1.992,1.239c-0.583,0-0.988-0.274-1.19-0.771
		c-0.123-0.302-0.21-0.774-0.21-1.466V6.806h1.896v7.485c0,0.423,0,0.599,0,0.698c0.044,0.279,0.164,0.383,0.404,0.383
		c0.363,0,0.691-0.314,1.093-0.882V6.806h1.896L18.666,16.885L18.666,16.885z"/>
	<path id="o_2_" d="M11.98,10.099c0-1.077-0.216-1.886-0.599-2.395c-0.505-0.689-1.297-0.972-2.096-0.972
		c-0.904,0-1.592,0.282-2.096,0.972c-0.388,0.509-0.597,1.327-0.597,2.404L6.59,13.69c0,1.072,0.186,1.812,0.574,2.315
		c0.504,0.688,1.322,1.052,2.121,1.052c0.798,0,1.63-0.363,2.135-1.052c0.383-0.504,0.559-1.243,0.559-2.315L11.98,10.099
		L11.98,10.099z M10.084,13.892c0.1,0.998-0.21,1.492-0.799,1.492c-0.589,0-0.898-0.494-0.798-1.492V9.899
		c-0.1-0.998,0.21-1.466,0.799-1.466c0.588,0,0.899,0.468,0.799,1.466L10.084,13.892z"/>
	<path id="y_2_" d="M4.495,11.396v5.489H2.5v-5.489c0,0-2.068-6.729-2.495-7.983H2.1l1.4,5.257l1.394-5.257H6.99L4.495,11.396z"/>
</g>
<g>
	<path d="M38.169,8.408c-0.297,0-0.638,0.157-0.94,0.455l-0.002,6.052c0.303,0.303,0.646,0.456,0.942,0.456
		c0.521,0,0.756-0.382,0.756-1.38V9.699C38.925,8.701,38.689,8.408,38.169,8.408z"/>
	<path d="M49.707,4.501c0,0-0.291-2.044-1.186-2.944c-1.133-1.182-2.402-1.188-2.985-1.256C41.366,0,35.111,0,35.111,0h-0.014
		c0,0-6.255,0-10.425,0.3c-0.583,0.069-1.853,0.075-2.986,1.256c-0.894,0.9-1.185,2.944-1.185,2.944s-0.298,2.401-0.298,4.802v2.25
		c0,2.4,0.298,4.801,0.298,4.801s0.291,2.045,1.185,2.944c1.133,1.183,2.623,1.144,3.286,1.269
		c2.384,0.228,10.132,0.297,10.132,0.297s6.262-0.01,10.432-0.309c0.583-0.07,1.854-0.076,2.986-1.258
		c0.894-0.9,1.185-2.943,1.185-2.943s0.298-2.401,0.298-4.802v-2.25C50.004,6.902,49.707,4.501,49.707,4.501z M26.75,16.885h-1.996
		V5.409h-2.096V3.515l6.287-0.003v1.897H26.75V16.885z M33.936,16.885h-1.896v-1.098c-0.719,0.823-1.328,1.239-1.993,1.239
		c-0.583,0-0.987-0.274-1.19-0.771c-0.123-0.302-0.209-0.774-0.209-1.466V6.905h1.896v7.385c0,0.423,0,0.6,0,0.697
		c0.044,0.281,0.163,0.384,0.403,0.384c0.363,0,0.691-0.315,1.094-0.882V6.905h1.896V16.885z M40.82,13.892
		c0,0.922-0.078,1.572-0.199,1.996c-0.241,0.74-0.768,1.125-1.486,1.125c-0.642,0-1.3-0.386-1.904-1.133l-0.002,1.005h-1.797V3.512
		h1.797l-0.002,4.36c0.582-0.717,1.244-1.126,1.908-1.126c0.719,0,1.203,0.415,1.444,1.161C40.7,8.309,40.82,8.954,40.82,9.899
		V13.892z M47.512,12.192h-3.597v1.793c-0.006,0.921,0.256,1.385,0.876,1.385c0.445,0,0.704-0.242,0.807-0.725
		c0.018-0.099,0.014-0.529,0.014-1.254h1.896v0.282c0,0.582-0.048,0.994-0.064,1.175c-0.061,0.401-0.201,0.764-0.422,1.084
		c-0.5,0.724-1.24,1.08-2.185,1.08s-1.665-0.339-2.187-1.021c-0.385-0.499-0.631-1.241-0.631-2.302v-3.492
		c0-1.066,0.224-1.89,0.607-2.394c0.523-0.682,1.243-1.043,2.165-1.043c0.906,0,1.625,0.36,2.132,1.043
		c0.377,0.505,0.588,1.285,0.588,2.35V12.192z"/>
	<path d="M44.773,8.409c-0.603,0-0.858,0.254-0.858,1.187V10.7l1.696-0.002V9.609C45.611,8.686,45.373,8.409,44.773,8.409z"/>
</g>
</svg>
